<?xml version="1.0" standalone="no"?>
<!DOCTYPE svg PUBLIC "-//W3C//DTD SVG 20010904//EN"
 "http://www.w3.org/TR/2001/REC-SVG-20010904/DTD/svg10.dtd">
<svg version="1.0" xmlns="http://www.w3.org/2000/svg"
 width="700.000000pt" height="700.000000pt" viewBox="0 0 700.000000 700.000000"
 preserveAspectRatio="xMidYMid meet">
<metadata>
Created by potrace 1.14, written by Peter Selinger 2001-2017
</metadata>
<g transform="translate(0.000000,700.000000) scale(0.100000,-0.100000)"
fill="#000000" stroke="none">
<path d="M3493 5123 c-15 -6 -17 -43 -3 -43 12 0 24 25 18 38 -1 5 -9 7 -15 5z"/>
<path d="M3367 5114 c-11 -11 -8 -44 3 -44 15 0 24 30 13 41 -5 5 -12 6 -16 3z"/>
<path d="M3627 5100 c-11 -16 -13 -26 -6 -29 16 -5 31 14 27 35 -3 17 -5 16
-21 -6z"/>
<path d="M3295 5100 c-9 -15 4 -30 26 -30 25 0 25 16 0 30 -13 7 -22 7 -26 0z"/>
<path d="M3440 5095 c-10 -12 -10 -19 -2 -27 14 -14 21 -8 27 21 5 25 -7 27
-25 6z"/>
<path d="M3670 5095 c-13 -16 10 -27 30 -15 9 6 18 3 26 -8 12 -16 14 -16 31
1 14 14 14 17 3 18 -16 1 -32 5 -40 8 -19 9 -41 7 -50 -4z"/>
<path d="M3570 5085 c0 -8 9 -24 20 -35 l21 -21 -7 28 c-4 16 -9 31 -11 36 -7
13 -23 8 -23 -8z"/>
<path d="M3525 5078 c-10 -26 2 -55 17 -40 8 8 8 18 1 34 -10 21 -12 21 -18 6z"/>
<path d="M3260 5060 c10 -19 40 -28 40 -12 0 13 -23 32 -37 32 -11 0 -11 -5
-3 -20z"/>
<path d="M3384 5065 c-3 -8 -3 -19 1 -25 10 -16 35 7 28 26 -7 18 -22 18 -29
-1z"/>
<path d="M3132 5057 c-13 -15 1 -42 17 -33 13 9 15 33 2 40 -5 3 -13 0 -19 -7z"/>
<path d="M3472 5054 c-21 -14 -22 -34 -2 -34 10 0 34 39 28 46 -2 2 -14 -3
-26 -12z"/>
<path d="M3643 5063 c-7 -2 -13 -11 -13 -19 0 -16 26 -19 35 -4 4 6 12 4 22
-5 12 -12 18 -13 29 -4 18 15 9 28 -15 22 -10 -3 -22 0 -25 6 -8 12 -14 12
-33 4z"/>
<path d="M3755 5060 c-11 -18 26 -23 43 -6 15 15 14 16 -10 16 -15 0 -30 -5
-33 -10z"/>
<path d="M3827 5059 c-9 -6 -15 -14 -12 -19 3 -5 -4 -11 -15 -15 -21 -7 -28
-25 -9 -25 6 0 8 -9 4 -20 -5 -15 -2 -20 11 -20 16 0 16 -1 -2 -15 -15 -12
-16 -16 -5 -24 9 -6 10 -11 2 -15 -6 -4 -11 -11 -11 -17 0 -12 21 -11 40 1 13
9 13 11 0 20 -10 6 -11 13 -5 18 17 11 12 62 -5 63 -10 0 -11 2 -2 6 6 2 12 9
12 15 0 6 8 17 18 24 23 17 5 37 -21 23z"/>
<path d="M3193 5044 c-9 -25 13 -40 26 -16 10 19 6 32 -11 32 -5 0 -11 -7 -15
-16z"/>
<path d="M3310 5051 c0 -5 7 -14 15 -21 11 -9 18 -10 29 -1 16 14 31 -17 44
-97 9 -49 8 -52 -8 -37 -20 18 -40 20 -40 3 0 -6 -7 -4 -18 5 -22 21 -35 12
-21 -14 8 -15 14 -17 29 -9 12 7 21 7 25 0 3 -5 14 -10 24 -10 20 0 21 -32 5
-121 -4 -24 -8 -47 -8 -51 -2 -15 -18 -9 -76 26 -64 40 -123 102 -139 147 -5
16 -7 28 -3 28 22 -3 32 3 32 21 0 23 -18 27 -26 5 -8 -20 -22 -19 -26 1 -4
21 -58 29 -58 9 0 -21 28 -26 39 -7 9 15 11 15 12 -3 1 -11 1 -22 1 -25 0 -3
12 -32 27 -63 15 -31 25 -57 22 -57 -12 0 -56 33 -98 74 -62 59 -53 27 11 -39
43 -44 50 -55 34 -55 -11 0 -18 -5 -16 -12 6 -18 25 -21 40 -5 11 13 18 12 53
-5 52 -27 136 -90 174 -130 17 -18 38 -55 47 -83 9 -27 19 -57 22 -65 3 -8
-15 4 -39 28 -24 24 -69 55 -101 70 -46 22 -55 31 -51 48 2 12 -3 26 -13 35
-16 13 -17 11 -12 -19 2 -17 2 -32 -1 -32 -15 1 -26 17 -26 38 0 12 -4 21 -10
20 -5 -2 -9 -11 -8 -21 2 -15 0 -16 -18 -7 -16 9 -18 14 -9 25 12 14 6 35 -10
35 -5 0 -10 -9 -12 -20 -2 -14 -7 -17 -17 -11 -12 8 -12 12 -2 25 15 17 7 51
-9 41 -5 -3 -10 -15 -10 -26 0 -10 -3 -19 -7 -19 -12 1 -70 82 -87 121 -8 18
-15 29 -16 23 0 -22 41 -104 75 -149 l35 -45 -27 6 c-53 13 -78 26 -130 65
-29 22 -53 37 -53 35 0 -3 14 -21 31 -41 29 -32 30 -35 10 -35 -25 0 -28 -18
-4 -27 10 -4 21 0 26 9 9 13 13 13 41 -1 17 -8 74 -29 125 -47 75 -25 90 -33
73 -38 -24 -8 -28 -21 -10 -32 6 -4 19 2 28 13 16 20 19 20 48 6 43 -21 110
-80 127 -113 l14 -28 -47 14 c-26 8 -54 14 -62 13 -31 -3 -38 1 -33 20 5 20
-11 36 -27 26 -7 -4 -6 -13 1 -27 11 -20 9 -21 -48 -15 -64 6 -188 47 -242 80
-18 11 -42 34 -52 51 -22 37 -25 29 -5 -18 13 -32 13 -33 -6 -28 -10 2 -17 10
-14 18 3 7 -2 18 -10 25 -12 10 -12 14 -2 21 10 6 9 12 -6 23 -15 11 -23 12
-30 4 -8 -8 -7 -13 2 -16 6 -3 12 -15 12 -28 0 -13 5 -27 10 -30 6 -4 8 -11 5
-16 -4 -5 2 -9 12 -9 10 0 64 -22 120 -50 56 -27 108 -50 114 -50 23 0 -4 -17
-52 -32 -25 -9 -63 -14 -85 -13 -21 1 -49 3 -60 4 -17 1 -20 6 -17 25 3 16 -1
25 -13 30 -23 9 -28 2 -14 -24 10 -19 9 -21 -7 -18 -12 2 -17 11 -15 24 1 12
-5 27 -14 35 -15 13 -17 11 -12 -18 2 -18 0 -34 -5 -36 -5 -1 32 -13 83 -26
85 -22 90 -25 69 -37 -20 -10 -25 -10 -32 2 -9 16 -47 19 -47 3 0 -6 10 -13
21 -16 21 -6 21 -7 4 -20 -25 -18 -11 -17 25 2 17 9 41 20 55 25 23 9 24 8 18
-23 -6 -29 -5 -31 11 -18 11 9 15 22 12 37 -7 28 10 33 134 41 73 4 103 2 132
-10 92 -39 97 -165 9 -224 -52 -35 -106 -45 -221 -43 -157 3 -360 1 -369 -4
-4 -3 -36 -7 -72 -11 -84 -8 -97 -10 -103 -16 -3 -3 34 -3 82 -1 48 2 84 1 81
-2 -3 -4 -53 -17 -110 -31 l-104 -24 80 4 80 5 -35 -19 c-53 -31 -25 -25 47 9
34 17 75 30 91 30 l27 -1 -38 -34 c-45 -39 -113 -65 -171 -65 -25 0 -36 -4
-28 -8 7 -5 38 -7 70 -6 l57 3 -39 -34 c-22 -19 -45 -35 -51 -35 -7 0 -18 -7
-25 -15 -11 -14 -9 -14 16 0 16 8 34 15 41 15 6 0 31 21 56 46 45 45 170 133
191 135 6 0 21 2 34 5 12 2 22 0 22 -4 0 -18 -78 -82 -123 -102 -55 -24 -58
-35 -7 -20 44 13 49 6 19 -26 -31 -34 -91 -68 -155 -88 -29 -10 -63 -30 -80
-48 l-29 -32 33 27 c29 23 101 52 109 43 10 -9 -23 -69 -46 -82 -22 -13 -23
-14 -3 -9 29 8 29 -13 0 -51 -18 -23 -18 -26 -4 -14 11 8 32 44 48 80 16 36
39 73 51 83 29 24 81 51 73 39 -3 -5 -8 -31 -11 -58 -4 -27 -13 -62 -20 -78
-13 -25 -13 -27 0 -16 9 7 23 38 31 69 15 49 96 205 113 216 11 6 0 -69 -12
-85 -10 -13 -9 -13 4 0 9 8 24 37 33 63 24 65 51 81 118 72 l52 -7 -34 -18
c-44 -23 -64 -45 -135 -150 -32 -47 -65 -94 -73 -105 -9 -11 7 2 36 30 l52 50
-15 -46 c-27 -79 -97 -135 -201 -160 -64 -15 -78 -29 -23 -22 43 6 44 6 27
-14 -31 -34 -20 -36 19 -4 21 17 40 31 44 31 4 0 5 -25 3 -55 -2 -31 1 -55 6
-55 6 0 9 3 9 8 -1 4 -1 24 0 46 1 32 8 45 44 78 95 89 107 104 123 152 18 54
55 119 75 132 21 13 -1 -68 -27 -103 -25 -32 -21 -45 5 -20 11 10 12 9 6 -3
-4 -8 -15 -24 -24 -35 -16 -20 -16 -20 8 0 28 24 48 62 67 126 17 55 17 56 83
73 49 13 50 13 39 -8 -47 -88 -98 -152 -173 -216 -84 -71 -139 -145 -140 -187
-1 -13 0 -23 2 -23 2 0 15 25 29 55 15 31 28 54 31 52 2 -3 -8 -40 -22 -83
-21 -66 -33 -86 -73 -123 l-47 -43 48 25 c26 14 47 23 47 19 0 -4 -11 -26 -25
-49 -13 -24 -22 -43 -20 -43 11 0 66 93 71 120 7 34 22 50 21 22 0 -9 3 -34 7
-55 6 -28 4 -44 -8 -65 l-17 -27 20 23 20 23 5 -33 c3 -18 8 -46 10 -63 3 -16
2 17 -1 75 -7 139 -5 198 8 238 17 53 34 23 34 -61 l-1 -72 11 50 c6 28 8 68
4 89 -8 48 1 77 33 98 l23 15 -7 -120 c-6 -107 -9 -126 -37 -178 -17 -32 -30
-70 -29 -84 3 -35 18 -31 18 4 0 28 18 55 21 32 1 -6 3 -15 4 -21 1 -5 3 -24
4 -42 2 -50 11 -26 15 38 2 33 12 79 22 103 17 44 18 44 26 19 6 -18 4 -43 -5
-75 -13 -46 -24 -173 -14 -163 3 3 7 25 10 50 3 25 10 56 16 70 9 24 10 24 12
-10 1 -29 3 -26 10 20 5 30 6 89 2 130 -10 113 -7 162 14 210 l19 44 -3 -77
c-1 -42 2 -79 7 -82 6 -4 10 14 10 41 0 52 14 51 25 -1 22 -114 20 -127 -34
-272 -17 -46 -26 -83 -21 -83 6 0 10 5 10 11 0 17 53 119 62 119 13 0 9 -63
-7 -90 -24 -42 -16 -47 10 -6 19 32 24 53 24 110 0 39 2 80 5 91 2 11 5 34 6
50 l1 30 10 -25 c6 -14 11 -50 12 -81 1 -32 6 -55 11 -52 4 3 6 40 3 82 -3 57
-12 92 -36 141 -40 85 -49 146 -27 189 21 39 34 33 43 -22 7 -41 7 -41 13 -12
4 17 2 38 -3 48 -12 26 -3 56 29 92 14 17 32 39 40 49 38 54 37 -78 -1 -160
-37 -80 -56 -136 -45 -129 6 3 10 12 10 18 0 7 9 23 20 37 l20 25 1 -40 c1
-40 1 -39 13 15 6 30 18 66 25 80 l14 24 9 -24 c20 -54 17 -98 -8 -135 -35
-52 -56 -96 -50 -103 3 -3 6 -1 6 5 0 6 16 30 35 53 31 38 35 40 35 18 0 -12
-14 -52 -31 -88 -16 -35 -36 -91 -44 -122 -16 -70 -15 -65 -15 -82 0 -8 -27
-44 -60 -80 -33 -37 -60 -74 -59 -84 0 -14 2 -14 6 -2 3 8 11 21 17 29 9 11
12 9 17 -15 l7 -29 1 32 c1 23 13 44 41 74 38 40 52 40 30 -1 -13 -25 -22
-109 -9 -89 5 8 9 23 9 34 0 11 7 30 15 43 9 12 20 55 24 97 6 54 16 86 37
119 15 24 32 42 36 40 18 -11 6 -80 -27 -150 -36 -76 -47 -112 -18 -59 15 27
17 28 23 10 13 -35 2 -74 -53 -180 -16 -31 -17 -37 -4 -27 9 8 26 35 39 60 26
55 37 37 19 -33 -17 -69 -12 -75 13 -15 16 39 23 78 25 135 1 44 5 90 8 103 5
21 7 22 23 7 9 -9 25 -33 35 -55 16 -36 17 -42 1 -80 -21 -54 -20 -62 4 -22
11 17 23 32 26 32 7 0 -2 -92 -11 -127 -3 -10 2 -2 12 17 9 19 19 59 22 88 l6
53 28 -42 c15 -24 27 -53 27 -65 0 -13 4 -25 9 -28 11 -7 -5 68 -21 98 -6 11
-24 37 -39 57 -16 20 -38 58 -49 84 -22 52 -35 175 -19 175 6 0 7 5 4 11 -4 5
-8 72 -9 147 l-2 136 18 -40 c9 -22 18 -57 20 -76 1 -20 5 -36 9 -35 4 1 15
-7 23 -18 14 -18 15 -16 2 22 -8 22 -17 58 -20 78 -3 20 -24 74 -47 120 -22
45 -39 93 -37 105 2 18 10 12 48 -40 76 -105 79 -111 70 -135 -4 -12 -5 -37 0
-56 l8 -34 1 31 c1 16 7 39 15 50 14 18 15 18 26 -11 21 -52 14 -108 -23 -192
-39 -87 -50 -149 -38 -208 l9 -40 2 55 c1 30 7 71 14 90 l13 35 6 -70 c4 -39
7 -95 7 -125 0 -38 6 -64 20 -85 23 -34 26 -27 7 13 -8 16 -11 42 -7 62 l5 35
32 -65 c17 -36 33 -72 36 -80 5 -12 6 -12 6 1 1 9 -15 60 -34 113 -20 55 -35
116 -35 141 0 53 20 145 32 145 4 0 7 -3 7 -7 -1 -5 0 -30 1 -58 2 -39 4 -45
9 -25 4 14 7 57 5 95 l-2 70 16 -35 c16 -34 18 -77 13 -275 0 -33 4 -76 9 -95
l9 -35 -2 37 c-2 21 0 35 4 30 11 -12 28 -94 22 -108 -3 -8 -1 -14 5 -14 12 0
7 72 -9 146 -7 29 -8 65 -5 80 7 28 8 27 27 -26 10 -30 19 -76 19 -102 0 -46
16 -79 17 -35 1 66 2 70 17 57 8 -6 16 -33 18 -58 l3 -47 6 38 c3 22 -1 53 -9
75 -49 128 -54 150 -56 239 -1 51 0 93 4 93 3 0 17 -10 29 -22 21 -19 23 -27
18 -83 -3 -35 -1 -79 4 -100 13 -48 19 -42 10 10 -4 23 -2 57 4 80 l12 40 13
-25 c16 -28 19 -152 7 -247 -4 -35 -4 -63 0 -63 4 0 9 11 9 25 1 14 5 32 8 42
6 14 8 14 22 -3 14 -18 14 -18 4 4 -7 13 -9 43 -6 65 3 23 5 49 6 57 0 8 12
-12 26 -45 13 -33 34 -69 45 -80 20 -19 20 -19 -1 17 -30 53 -22 61 27 28 23
-16 40 -23 37 -15 -3 7 -23 25 -44 40 -33 23 -42 38 -67 115 -28 86 -26 112 4
43 8 -19 17 -32 20 -29 3 3 13 1 20 -6 32 -26 -55 99 -91 132 -107 97 -174
171 -203 223 l-33 59 43 -7 c56 -9 72 -26 97 -99 11 -33 32 -74 47 -91 24 -28
25 -29 9 -3 -22 37 -20 45 5 22 16 -14 13 -6 -10 30 -18 29 -31 63 -31 80 l1
31 23 -29 c13 -16 36 -60 51 -98 31 -78 60 -117 111 -148 42 -26 60 -60 63
-119 5 -82 17 -84 14 -2 l-3 82 22 -12 c29 -14 68 -58 68 -75 0 -7 5 -16 11
-19 11 -8 -15 61 -32 82 -9 10 -6 13 15 13 15 0 37 -5 48 -11 14 -8 18 -8 14
0 -4 6 -39 20 -78 32 -83 24 -138 56 -165 96 -21 29 -46 94 -39 100 2 2 23
-18 46 -44 55 -61 40 -34 -52 96 -47 68 -84 110 -105 120 -18 9 -33 19 -33 23
0 13 87 20 108 9 20 -11 52 -68 52 -94 0 -8 8 -21 17 -28 12 -10 15 -10 9 -1
-11 18 -16 72 -7 72 12 0 103 -169 108 -202 2 -17 13 -44 24 -62 21 -34 26
-28 7 7 -6 12 -12 33 -13 47 -1 14 -5 40 -9 58 l-8 33 44 -27 c52 -33 64 -48
79 -95 6 -20 22 -50 35 -65 l24 -29 -22 39 -22 39 22 -5 c12 -4 20 -2 16 3 -3
5 -11 9 -19 9 -13 0 -42 67 -33 75 9 10 81 -21 106 -44 l26 -26 -16 25 c-10
16 -47 38 -104 63 -60 25 -102 51 -129 78 l-40 41 35 -7 c19 -4 49 -14 65 -22
l30 -14 -25 20 c-14 11 -29 21 -35 21 -25 1 -96 49 -126 84 l-34 39 40 -7 c47
-9 163 -83 208 -133 18 -20 52 -44 76 -55 58 -25 63 -17 6 11 -25 12 -50 31
-55 41 -10 18 -6 19 50 16 33 -1 60 1 60 6 0 4 -17 8 -39 8 -53 0 -98 17 -154
59 -46 34 -47 36 -23 39 15 2 51 -8 82 -22 64 -30 78 -32 49 -10 -19 15 -16
16 43 10 34 -4 62 -5 62 -2 0 2 -42 14 -92 26 -86 20 -141 42 -86 34 51 -8
138 -10 138 -4 0 4 -30 10 -67 14 -38 4 -90 9 -118 13 -49 6 -146 7 -356 3
-119 -1 -153 8 -212 60 -79 69 -70 193 17 234 45 21 148 33 144 17 -4 -15 28
-38 38 -28 4 4 0 15 -9 25 -14 16 -15 19 -2 19 8 0 17 -9 21 -19 3 -10 14 -18
25 -18 16 0 19 4 14 21 -6 19 -3 20 37 16 32 -3 44 -9 47 -23 3 -18 18 -34 33
-34 10 0 -3 33 -16 43 -7 5 -3 7 9 5 11 -2 21 -12 23 -23 5 -29 20 -41 33 -28
7 7 5 15 -6 27 -17 16 -9 21 19 10 8 -3 12 -12 9 -20 -8 -20 18 -49 28 -32 4
7 3 18 -3 25 -16 20 -6 24 30 13 20 -5 30 -5 27 1 -4 5 -16 9 -28 9 -19 1 -20
2 -6 10 31 18 82 71 75 77 -9 10 -42 -12 -39 -26 2 -6 -6 -11 -16 -11 -11 0
-23 -9 -26 -20 -3 -11 -10 -20 -14 -20 -3 0 -32 9 -64 20 -31 11 -64 20 -72
20 -26 0 -8 17 25 23 46 10 151 63 184 94 20 19 39 26 57 25 28 -3 47 12 29
23 -7 5 -5 12 7 20 10 7 14 17 10 21 -10 10 -42 -9 -42 -24 0 -14 -12 -25 -31
-28 -9 -1 -13 3 -11 10 3 7 1 19 -3 26 -5 7 -3 21 2 30 6 10 8 25 4 35 -9 23
-18 13 -21 -23 -1 -16 -6 -35 -10 -41 -4 -7 0 -20 9 -29 14 -16 12 -20 -27
-44 -23 -15 -77 -38 -120 -52 -70 -23 -80 -24 -94 -11 -12 12 -18 13 -29 4 -8
-6 -12 -15 -9 -19 6 -9 -18 -20 -43 -20 -13 0 -12 3 6 15 12 9 36 37 54 63 39
58 48 64 65 46 8 -8 21 -14 30 -14 23 0 9 25 -16 28 -18 3 -20 6 -10 18 6 8 8
14 4 14 -4 0 -2 7 5 15 14 17 6 50 -11 40 -5 -4 -9 -21 -7 -38 2 -18 -2 -32
-9 -34 -8 -3 -13 4 -13 16 0 12 -6 24 -14 27 -8 3 -16 19 -20 35 -5 24 -10 30
-28 27 -12 -2 -23 -9 -26 -17 -3 -10 2 -13 22 -9 21 4 24 3 15 -8 -13 -16 -4
-48 10 -39 5 3 12 -4 16 -15 3 -11 11 -20 16 -20 5 0 -16 -27 -47 -60 -58 -59
-112 -90 -160 -90 -25 0 -26 1 -12 23 8 12 23 46 32 75 16 46 21 52 46 52 16
0 30 7 34 15 7 19 -24 20 -43 3 -11 -11 -11 -9 -1 10 16 32 21 75 10 92 -7 12
-10 11 -16 -4 -4 -10 -2 -27 4 -37 7 -10 8 -20 2 -24 -5 -3 -13 2 -18 11 -12
22 -32 9 -25 -17 3 -12 11 -18 19 -15 8 3 5 -9 -10 -32 -13 -20 -36 -59 -51
-86 -26 -46 -29 -48 -36 -27 -11 29 -33 17 -25 -14 4 -14 1 -25 -7 -28 -9 -3
-13 3 -13 15 1 12 -5 23 -13 26 -11 4 -13 -2 -8 -27 6 -26 4 -31 -13 -31 -18
0 -19 3 -8 20 7 10 9 22 5 26 -11 12 -39 -19 -34 -38 3 -11 0 -18 -9 -18 -9 0
-14 12 -14 36 0 19 4 33 9 29 10 -6 41 21 41 36 0 6 -9 7 -20 4 -16 -5 -20 -2
-20 17 0 16 3 19 8 10 10 -15 38 -6 46 15 5 12 1 14 -18 11 -17 -4 -23 -1 -19
8 3 8 17 13 35 11 18 -1 33 3 35 11 3 7 -4 12 -19 12 -23 1 -22 1 6 25 16 13
53 35 83 49 29 15 53 29 53 32 0 3 -5 2 -11 -1 -6 -4 -16 1 -23 11 -8 10 -20
15 -30 11 -23 -9 -20 -25 6 -29 15 -2 7 -8 -29 -19 -47 -14 -51 -14 -43 0 21
37 129 116 184 135 52 18 84 10 88 -22 2 -14 9 -28 17 -30 10 -3 13 2 9 22 -6
30 -7 29 26 16 17 -6 35 -6 51 0 31 12 33 33 3 28 -13 -2 -22 -9 -20 -17 2 -9
-3 -11 -13 -7 -9 3 -19 6 -22 6 -3 0 5 9 18 20 20 16 21 19 7 20 -10 0 -18 4
-18 10 0 5 6 8 13 6 6 -1 9 -1 5 1 -5 3 -5 16 -2 30 5 19 3 24 -7 21 -8 -3
-14 -16 -14 -29 0 -20 -7 -25 -45 -31 -25 -4 -57 -9 -72 -12 -25 -5 -27 -4
-16 14 7 10 9 22 6 26 -11 10 -28 -6 -28 -27 0 -13 -12 -25 -34 -34 -19 -8
-37 -19 -41 -25 -15 -25 -23 -7 -9 25 7 19 14 51 13 72 l-1 38 -10 -38 c-9
-34 -11 -36 -23 -20 -18 24 -29 11 -21 -24 6 -21 9 -24 17 -12 5 7 9 9 9 3 0
-11 -33 -58 -121 -173 -26 -33 -57 -81 -69 -106 l-22 -46 -29 46 c-41 64 -38
91 18 163 37 49 49 59 60 50 11 -9 18 -7 30 5 22 22 8 35 -19 18 -19 -12 -20
-11 -14 5 8 21 -103 -81 -121 -111 -11 -18 -12 -17 -13 16 0 33 38 121 62 144
8 7 9 6 5 -1 -8 -14 17 -26 38 -18 22 9 18 22 -7 26 -18 2 -10 10 38 34 60 31
62 31 78 13 19 -23 36 -25 36 -4 0 10 10 15 26 15 22 0 25 2 14 15 -7 8 -19
15 -26 15 -8 0 -14 -7 -14 -15 0 -18 -5 -18 -31 -5 -13 8 -26 7 -41 -1 -19 -9
-21 -9 -10 2 6 7 12 21 12 31 0 10 7 21 15 24 29 11 15 26 -20 21 -25 -3 -35
-1 -35 9 0 16 -17 27 -30 19 -7 -4 -7 -13 0 -26 6 -11 15 -17 21 -14 5 4 9 1
9 -4 0 -13 -129 -151 -141 -151 -17 0 -9 19 10 25 21 7 35 31 21 40 -4 3 -15
-1 -23 -9 -16 -16 -27 -11 -27 12 0 7 6 12 13 9 15 -5 47 10 47 23 0 15 -37
12 -44 -2 -3 -7 -4 3 -1 22 5 35 5 35 -6 6 l-11 -28 -27 48 c-14 27 -31 49
-38 49 -6 0 -15 3 -19 8 -10 10 -34 9 -34 -2z m298 -78 c-6 -7 -8 -22 -5 -33
3 -11 2 -20 -1 -20 -4 0 -17 -3 -30 -6 l-23 -7 25 38 c14 21 26 45 26 54 0 14
2 14 10 1 5 -9 5 -19 -2 -27z m379 -128 c0 -16 -7 -18 -32 -9 -13 5 -14 8 -3
15 20 13 35 11 35 -6z"/>
<path d="M3881 5041 c-11 -7 -10 -11 6 -20 11 -5 24 -7 27 -3 4 4 12 -1 17
-10 5 -10 17 -14 29 -11 35 9 22 29 -16 24 -6 -1 -17 6 -24 14 -14 17 -20 18
-39 6z"/>
<path d="M3082 5028 c6 -16 36 -34 44 -25 9 9 -15 37 -33 37 -8 0 -13 -5 -11
-12z"/>
<path d="M3245 5019 c-8 -23 -1 -34 14 -24 13 8 15 45 2 45 -5 0 -13 -9 -16
-21z"/>
<path d="M3417 5033 c-8 -8 -9 -43 -1 -43 3 0 12 6 19 14 12 12 12 16 1 25 -7
6 -16 8 -19 4z"/>
<path d="M3730 5030 c-7 -4 -10 -12 -6 -18 8 -13 39 -9 43 5 5 14 -21 23 -37
13z"/>
<path d="M3153 5018 c-4 -7 -8 -17 -8 -23 0 -10 -16 -11 -44 -4 -22 6 -24 -19
-2 -26 24 -7 81 28 81 51 0 17 -16 18 -27 2z"/>
<path d="M3286 5005 c6 -14 18 -19 37 -16 4 1 16 -3 27 -9 13 -7 21 -7 26 1 9
14 -16 30 -38 25 -10 -2 -18 0 -18 5 0 5 -9 9 -20 9 -13 0 -18 -5 -14 -15z"/>
<path d="M3473 5013 c-7 -3 -13 -13 -13 -24 0 -21 25 -16 34 6 6 17 -4 24 -21
18z"/>
<path d="M3684 5012 c-18 -12 -24 -40 -8 -46 9 -3 16 3 20 20 7 28 3 36 -12
26z"/>
<path d="M3847 5014 c-10 -11 3 -24 24 -24 23 0 25 15 3 24 -19 7 -19 7 -27 0z"/>
<path d="M3213 5003 c-15 -6 -17 -43 -3 -43 12 0 24 25 18 38 -1 5 -9 7 -15 5z"/>
<path d="M3530 4992 c0 -11 7 -23 16 -26 11 -4 15 0 12 16 -4 28 -28 36 -28
10z"/>
<path d="M3030 4990 c-10 -6 -8 -11 8 -21 16 -10 19 -20 15 -41 -3 -17 -1 -28
5 -28 17 0 22 15 15 53 -6 38 -21 51 -43 37z"/>
<path d="M3729 4989 c-22 -14 10 -30 33 -18 10 5 18 11 18 13 0 9 -39 13 -51
5z"/>
<path d="M3260 4974 c0 -8 -4 -13 -9 -9 -15 8 -41 -24 -34 -42 5 -14 9 -13 25
7 10 12 18 18 18 14 1 -11 30 27 30 38 0 4 -7 8 -15 8 -8 0 -15 -7 -15 -16z"/>
<path d="M3160 4965 c-16 -19 -3 -40 16 -24 15 13 19 39 5 39 -5 0 -14 -7 -21
-15z"/>
<path d="M3500 4961 c0 -22 16 -36 24 -22 8 12 -3 41 -15 41 -5 0 -9 -9 -9
-19z"/>
<path d="M3904 4965 c-11 -27 1 -39 19 -21 17 17 15 36 -4 36 -5 0 -12 -7 -15
-15z"/>
<path d="M3952 4968 c-17 -17 -15 -49 2 -42 18 7 26 27 17 42 -5 9 -10 9 -19
0z"/>
<path d="M3997 4973 c-14 -13 -7 -42 8 -37 8 4 15 15 15 25 0 19 -11 25 -23
12z"/>
<path d="M2934 4957 c-3 -9 -3 -25 1 -34 6 -16 8 -16 18 5 7 16 7 26 -1 34 -8
8 -13 7 -18 -5z"/>
<path d="M3290 4961 c0 -15 28 -33 40 -26 8 5 8 11 -1 21 -13 15 -39 19 -39 5z"/>
<path d="M3350 4947 c0 -8 9 -17 21 -20 15 -4 19 -1 17 11 -4 21 -38 29 -38 9z"/>
<path d="M3855 4939 c-4 -11 -4 -23 -1 -27 10 -9 39 25 32 37 -11 17 -24 13
-31 -10z"/>
<path d="M2965 4930 c-9 -14 4 -52 16 -45 12 8 12 42 0 50 -5 3 -12 1 -16 -5z"/>
<path d="M4059 4938 c-1 -2 -3 -22 -4 -45 -2 -44 5 -50 39 -37 21 8 11 24 -15
24 -18 0 -18 2 -4 23 14 22 12 37 -7 37 -4 0 -9 -1 -9 -2z"/>
<path d="M3957 4915 c-13 -12 -15 -21 -8 -28 15 -15 34 5 29 29 -3 17 -4 17
-21 -1z"/>
<path d="M2896 4911 c-8 -12 21 -34 34 -26 8 5 8 11 -1 21 -13 16 -25 18 -33
5z"/>
<path d="M3241 4901 c-6 -10 -7 -21 -4 -25 9 -8 33 14 33 30 0 20 -18 17 -29
-5z"/>
<path d="M3625 4910 c-10 -16 9 -33 30 -28 16 3 15 5 -3 21 -14 13 -22 15 -27
7z"/>
<path d="M3896 4904 c-8 -22 -8 -24 8 -24 12 0 26 20 26 36 0 12 -29 2 -34
-12z"/>
<path d="M3084 4895 c-3 -8 -3 -19 1 -25 11 -18 25 -11 25 15 0 27 -17 34 -26
10z"/>
<path d="M2996 4885 c-9 -24 -7 -45 3 -45 5 0 13 9 16 21 8 26 -9 48 -19 24z"/>
<path d="M3196 4893 c-3 -3 -6 -17 -6 -31 0 -21 2 -22 15 -12 8 7 15 18 15 26
0 15 -15 26 -24 17z"/>
<path d="M3575 4891 c-3 -6 3 -15 14 -21 24 -12 42 7 20 21 -18 11 -26 11 -34
0z"/>
<path d="M2836 4881 c-7 -11 3 -41 14 -41 11 0 18 22 12 38 -5 14 -18 16 -26
3z"/>
<path d="M3270 4870 c-15 -28 -4 -39 17 -17 13 12 14 20 6 28 -8 8 -14 5 -23
-11z"/>
<path d="M3671 4876 c-9 -10 -9 -16 -1 -21 12 -7 40 11 40 26 0 14 -26 10 -39
-5z"/>
<path d="M2926 4873 c-8 -9 14 -33 30 -33 8 0 14 4 14 10 0 12 -35 31 -44 23z"/>
<path d="M3126 4873 c-12 -12 -6 -43 9 -43 8 0 15 9 15 19 0 21 -13 34 -24 24z"/>
<path d="M3793 4863 c-7 -2 -13 -9 -13 -15 0 -14 43 -6 48 10 4 12 -12 15 -35
5z"/>
<path d="M3026 4853 c-3 -3 -6 -17 -6 -31 0 -21 2 -22 15 -12 8 7 15 18 15 26
0 15 -15 26 -24 17z"/>
<path d="M3222 4843 c-6 -10 -7 -25 -2 -32 6 -11 11 -8 20 9 8 15 9 25 2 32
-7 7 -14 4 -20 -9z"/>
<path d="M3313 4849 c-7 -7 -13 -22 -13 -33 0 -19 1 -19 16 -4 9 8 14 23 12
32 -2 14 -5 15 -15 5z"/>
<path d="M3350 4851 c0 -12 29 -35 36 -28 11 10 -5 37 -21 37 -8 0 -15 -4 -15
-9z"/>
<path d="M3610 4845 c-8 -9 -6 -14 7 -17 21 -6 43 0 43 12 0 14 -39 18 -50 5z"/>
<path d="M4110 4845 c-11 -13 -8 -15 14 -15 16 0 26 5 26 15 0 8 -6 15 -14 15
-7 0 -19 -7 -26 -15z"/>
<path d="M2873 4839 c-16 -16 -4 -51 15 -44 10 4 13 0 9 -14 -3 -11 1 -25 8
-31 21 -17 28 20 8 42 -9 10 -18 26 -19 34 -3 22 -9 25 -21 13z"/>
<path d="M3687 4834 c-3 -4 -1 -16 5 -27 9 -18 11 -19 20 -4 13 25 -6 49 -25
31z"/>
<path d="M4161 4831 c-22 -14 -4 -33 20 -21 11 6 17 15 14 21 -8 11 -16 11
-34 0z"/>
<path d="M2810 4821 c0 -12 29 -35 36 -28 11 10 -5 37 -21 37 -8 0 -15 -4 -15
-9z"/>
<path d="M2940 4820 c0 -15 38 -32 45 -20 3 5 3 15 0 20 -8 13 -45 13 -45 0z"/>
<path d="M3491 4816 c-9 -10 -8 -15 1 -18 19 -7 38 2 38 18 0 18 -24 18 -39 0z"/>
<path d="M3254 4807 c-3 -9 -3 -25 1 -34 6 -16 8 -16 18 5 7 16 7 26 -1 34 -8
8 -13 7 -18 -5z"/>
<path d="M3882 4808 c3 -7 14 -14 26 -16 16 -3 20 1 16 12 -7 19 -48 22 -42 4z"/>
<path d="M4080 4804 c0 -10 7 -14 22 -12 32 5 35 28 4 28 -17 0 -26 -5 -26
-16z"/>
<path d="M4203 4800 c-3 -11 -9 -20 -14 -20 -5 0 -9 -7 -9 -15 0 -8 6 -15 14
-15 19 0 44 30 25 31 -8 0 -4 4 9 9 28 12 29 30 1 30 -12 0 -23 -8 -26 -20z"/>
<path d="M3350 4797 c0 -14 19 -37 31 -37 9 0 6 20 -4 38 -11 16 -27 16 -27
-1z"/>
<path d="M3656 4802 c-7 -12 3 -42 14 -42 18 0 22 22 7 37 -9 9 -17 11 -21 5z"/>
<path d="M3044 4785 c-7 -17 4 -37 17 -30 12 8 12 45 -1 45 -6 0 -13 -7 -16
-15z"/>
<path d="M3820 4790 c-12 -8 -12 -10 3 -16 22 -8 50 3 42 16 -8 12 -25 13 -45
0z"/>
<path d="M3994 4785 c-3 -8 -3 -19 1 -25 11 -18 25 -11 25 15 0 27 -17 34 -26
10z"/>
<path d="M4127 4794 c-14 -14 -6 -24 19 -24 16 0 24 5 22 13 -5 14 -31 21 -41
11z"/>
<path d="M3294 4775 c-3 -8 -3 -19 1 -25 11 -18 25 -11 25 15 0 27 -17 34 -26
10z"/>
<path d="M4037 4778 c-2 -7 0 -21 4 -30 6 -10 5 -19 -1 -23 -5 -3 -10 -15 -10
-26 0 -26 24 -19 26 7 1 10 3 21 4 24 8 22 6 41 -5 50 -10 8 -14 7 -18 -2z"/>
<path d="M4275 4778 c-10 -26 2 -55 17 -40 8 8 8 18 1 34 -10 21 -12 21 -18 6z"/>
<path d="M2836 4773 c-11 -11 -6 -21 14 -26 11 -3 22 -1 25 3 7 11 -30 32 -39
23z"/>
<path d="M2966 4767 c8 -22 46 -30 42 -9 -2 9 -13 18 -26 20 -16 3 -20 -1 -16
-11z"/>
<path d="M3466 4764 c-9 -22 -8 -23 13 -17 27 7 36 33 12 33 -10 0 -22 -7 -25
-16z"/>
<path d="M3620 4772 c0 -19 12 -42 22 -42 14 0 5 43 -9 48 -7 2 -13 -1 -13 -6z"/>
<path d="M3902 4768 c5 -15 37 -18 41 -3 1 6 -9 12 -22 13 -16 3 -22 -1 -19
-10z"/>
<path d="M4080 4765 c0 -16 27 -32 37 -21 7 7 -16 36 -28 36 -5 0 -9 -7 -9
-15z"/>
<path d="M2710 4745 c0 -14 -5 -25 -11 -25 -15 0 -7 -43 10 -48 10 -3 12 1 8
18 -4 16 -1 28 10 35 10 7 14 19 10 29 -10 25 -27 19 -27 -9z"/>
<path d="M3560 4755 c-15 -19 20 -30 38 -12 12 12 11 15 -7 20 -11 3 -25 -1
-31 -8z"/>
<path d="M3775 4761 c-3 -5 -1 -12 5 -16 14 -9 52 4 45 16 -8 12 -42 12 -50 0z"/>
<path d="M2934 4745 c-7 -17 4 -37 17 -30 12 8 12 45 -1 45 -6 0 -13 -7 -16
-15z"/>
<path d="M3077 4753 c-4 -3 -7 -15 -7 -25 0 -26 24 -17 28 10 3 21 -8 29 -21
15z"/>
<path d="M3337 4754 c-3 -4 -2 -16 4 -26 13 -24 33 -10 23 15 -6 18 -16 21
-27 11z"/>
<path d="M3836 4744 c-8 -21 -3 -26 17 -18 24 9 30 34 8 34 -10 0 -22 -7 -25
-16z"/>
<path d="M4140 4740 c11 -20 40 -28 40 -10 0 9 -31 30 -45 30 -3 0 -1 -9 5
-20z"/>
<path d="M3885 4740 c-9 -14 4 -52 16 -45 12 8 12 42 0 50 -5 3 -12 1 -16 -5z"/>
<path d="M3932 4738 c-7 -7 -12 -18 -12 -25 0 -11 5 -11 20 -3 11 6 20 17 20
25 0 18 -12 19 -28 3z"/>
<path d="M3970 4736 c0 -14 29 -31 38 -22 2 3 2 12 -1 21 -8 19 -37 20 -37 1z"/>
<path d="M4242 4729 c1 -13 8 -23 13 -21 15 3 12 35 -3 40 -9 3 -13 -3 -10
-19z"/>
<path d="M4307 4744 c-10 -11 -9 -54 2 -54 14 0 22 30 13 46 -4 8 -11 11 -15
8z"/>
<path d="M4190 4726 c0 -14 29 -31 38 -22 2 3 2 12 -1 21 -8 19 -37 20 -37 1z"/>
<path d="M2842 4718 c3 -7 15 -15 27 -16 16 -3 22 1 19 10 -3 7 -15 15 -27 16
-16 3 -22 -1 -19 -10z"/>
<path d="M2977 4723 c-13 -12 -7 -43 8 -43 9 0 15 9 15 25 0 24 -10 32 -23 18z"/>
<path d="M3177 4723 c-14 -13 -6 -24 15 -21 27 4 36 28 11 28 -11 0 -23 -3
-26 -7z"/>
<path d="M3520 4716 c-8 -10 -6 -15 6 -20 17 -7 34 0 34 14 0 15 -28 19 -40 6z"/>
<path d="M2747 4714 c-3 -4 -2 -16 4 -26 13 -24 35 -9 26 16 -7 17 -19 21 -30
10z"/>
<path d="M3587 4714 c-3 -4 -2 -16 4 -26 13 -24 35 -9 26 16 -7 17 -19 21 -30
10z"/>
<path d="M4078 4706 c-29 -28 -21 -47 10 -27 8 5 12 17 10 26 -3 18 -4 18 -20
1z"/>
<path d="M3224 4696 c-23 -17 -2 -31 26 -16 24 13 25 16 6 23 -8 3 -22 0 -32
-7z"/>
<path d="M4270 4685 c0 -16 6 -25 15 -25 8 0 14 -3 14 -7 -3 -20 2 -24 16 -13
19 16 20 44 1 37 -9 -4 -17 2 -21 14 -9 27 -25 24 -25 -6z"/>
<path d="M3017 4687 c-3 -8 -1 -20 4 -28 8 -12 10 -12 19 1 5 8 8 19 7 24 -5
16 -24 18 -30 3z"/>
<path d="M4002 4683 c-6 -10 -7 -25 -2 -32 6 -11 10 -9 18 6 6 10 7 25 2 32
-6 11 -10 9 -18 -6z"/>
<path d="M4124 4685 c-4 -8 -12 -15 -19 -15 -17 0 -38 -26 -33 -41 3 -8 13 -3
27 12 l23 24 -7 -23 c-6 -20 -4 -23 16 -20 27 4 38 28 12 29 -10 0 -13 3 -5 6
14 6 16 43 2 43 -6 0 -13 -7 -16 -15z"/>
<path d="M2882 4678 c3 -7 15 -15 28 -16 21 -3 22 -2 11 12 -16 19 -44 21 -39
4z"/>
<path d="M3277 4672 c-10 -2 -16 -9 -14 -15 5 -15 19 -18 37 -7 19 12 2 28
-23 22z"/>
<path d="M3550 4661 c0 -20 17 -37 27 -28 7 8 -7 47 -18 47 -5 0 -9 -9 -9 -19z"/>
<path d="M3747 4673 c-14 -13 -6 -23 18 -23 28 0 34 15 9 24 -19 7 -19 7 -27
-1z"/>
<path d="M3879 4678 c-11 -37 -8 -49 13 -46 29 4 36 28 8 28 -12 0 -18 5 -15
10 3 6 4 10 1 10 -3 0 -6 -1 -7 -2z"/>
<path d="M4165 4669 c-10 -15 1 -22 24 -14 12 3 19 11 16 16 -8 12 -32 11 -40
-2z"/>
<path d="M2730 4661 c0 -12 29 -35 36 -28 11 10 -5 37 -21 37 -8 0 -15 -4 -15
-9z"/>
<path d="M3497 4663 c-13 -12 -7 -23 12 -23 10 0 21 7 25 15 5 15 -24 22 -37
8z"/>
<path d="M4339 4654 c-6 -8 -6 -14 0 -18 13 -9 41 4 41 18 0 16 -27 16 -41 0z"/>
<path d="M2680 4651 c0 -15 28 -33 40 -26 8 5 8 11 -1 21 -13 15 -39 19 -39 5z"/>
<path d="M2780 4655 c0 -14 21 -45 31 -45 18 0 5 45 -13 48 -10 2 -18 1 -18
-3z"/>
<path d="M2840 4642 c0 -11 7 -23 16 -26 11 -4 15 0 12 16 -4 28 -28 36 -28
10z"/>
<path d="M3703 4643 c-21 -8 -15 -23 8 -23 15 0 19 -5 15 -15 -6 -16 3 -19 28
-9 21 8 20 30 -1 38 -10 3 -22 8 -28 10 -5 2 -16 2 -22 -1z"/>
<path d="M4187 4643 c-12 -11 -7 -33 7 -33 12 0 26 20 26 36 0 7 -26 5 -33 -3z"/>
<path d="M4267 4644 c-11 -11 -8 -44 3 -44 15 0 24 30 13 41 -5 5 -12 6 -16 3z"/>
<path d="M2887 4633 c-4 -3 -7 -15 -7 -25 0 -26 24 -17 28 10 3 21 -8 29 -21
15z"/>
<path d="M3295 4620 c-7 -23 2 -43 16 -35 12 8 12 42 0 50 -5 3 -12 -4 -16
-15z"/>
<path d="M3922 4628 c-14 -14 -16 -38 -2 -38 13 0 32 38 22 44 -5 3 -14 0 -20
-6z"/>
<path d="M2635 4621 c-7 -12 31 -25 45 -16 6 4 8 11 5 16 -8 12 -42 12 -50 0z"/>
<path d="M3780 4605 c0 -25 14 -34 24 -16 8 12 -3 41 -15 41 -5 0 -9 -11 -9
-25z"/>
<path d="M2712 4613 c-10 -4 -10 -8 -1 -19 13 -15 39 -19 39 -5 0 14 -24 29
-38 24z"/>
<path d="M2765 4611 c-10 -17 15 -45 29 -31 7 7 5 15 -6 26 -11 11 -18 13 -23
5z"/>
<path d="M2965 4609 c-4 -6 -5 -13 -2 -16 8 -7 47 7 47 18 0 13 -37 11 -45 -2z"/>
<path d="M3520 4611 c0 -17 12 -41 21 -41 5 0 9 11 9 25 0 16 -6 25 -15 25 -8
0 -15 -4 -15 -9z"/>
<path d="M3947 4597 c-3 -8 -1 -20 4 -28 11 -19 32 2 23 24 -7 20 -20 22 -27
4z"/>
<path d="M4065 4600 c-8 -13 13 -22 36 -15 15 5 19 4 15 -4 -4 -7 1 -11 12
-11 15 0 32 18 32 33 0 7 -91 4 -95 -3z"/>
<path d="M3010 4585 c-11 -13 -9 -15 13 -15 14 0 27 7 31 15 3 10 -1 15 -13
15 -10 0 -24 -7 -31 -15z"/>
<path d="M3335 4590 c-11 -18 26 -23 43 -6 15 15 14 16 -10 16 -15 0 -30 -5
-33 -10z"/>
<path d="M4190 4575 c0 -17 5 -25 13 -22 6 2 12 12 12 22 0 10 -6 20 -12 23
-8 2 -13 -6 -13 -23z"/>
<path d="M2907 4577 c-3 -8 -1 -20 4 -28 8 -12 10 -12 18 0 10 15 4 41 -9 41
-4 0 -10 -6 -13 -13z"/>
<path d="M3680 4575 c-7 -8 -10 -19 -6 -22 9 -9 38 8 38 22 -1 16 -18 16 -32
0z"/>
<path d="M3747 4576 c-3 -8 0 -22 7 -31 12 -16 13 -16 19 -1 7 18 -1 46 -13
46 -4 0 -10 -6 -13 -14z"/>
<path d="M2610 4564 c0 -11 -7 -13 -26 -8 -20 5 -25 3 -22 -7 5 -17 48 -25 48
-10 0 6 12 11 27 11 21 0 24 3 15 12 -17 17 -42 18 -42 2z"/>
<path d="M2670 4564 c0 -8 11 -14 26 -14 16 0 24 5 22 13 -6 17 -48 18 -48 1z"/>
<path d="M3066 4565 c-7 -19 14 -19 40 0 18 14 18 14 -7 15 -15 0 -29 -7 -33
-15z"/>
<path d="M3841 4571 c-22 -14 -4 -33 20 -21 11 6 17 15 14 21 -8 11 -16 11
-34 0z"/>
<path d="M4143 4563 c-23 -16 -32 -53 -13 -53 6 0 15 10 20 23 5 12 9 16 9 10
2 -25 21 -13 21 12 0 29 -6 30 -37 8z"/>
<path d="M2740 4556 c0 -7 6 -19 14 -25 19 -16 32 5 16 24 -16 19 -30 19 -30
1z"/>
<path d="M2790 4556 c0 -8 5 -18 11 -22 8 -4 7 -9 -2 -15 -9 -6 -2 -8 21 -8
19 1 27 3 17 6 -9 2 -15 9 -11 14 6 11 -13 39 -27 39 -5 0 -9 -6 -9 -14z"/>
<path d="M3129 4554 c-6 -8 -9 -17 -6 -20 8 -8 47 5 47 16 0 15 -29 19 -41 4z"/>
<path d="M3370 4562 c0 -13 23 -32 37 -32 11 0 11 5 3 20 -10 19 -40 28 -40
12z"/>
<path d="M3912 4548 c5 -32 28 -35 28 -4 0 17 -5 26 -16 26 -10 0 -14 -7 -12
-22z"/>
<path d="M2944 4546 c-6 -17 2 -36 17 -36 12 0 12 37 -1 45 -6 3 -13 -1 -16
-9z"/>
<path d="M4327 4553 c-14 -13 -6 -24 15 -21 27 4 36 28 11 28 -11 0 -23 -3
-26 -7z"/>
<path d="M3697 4543 c-10 -10 -8 -43 2 -43 6 0 13 5 16 11 5 6 11 4 19 -7 8
-11 15 -13 20 -6 10 16 -5 44 -20 38 -8 -3 -14 -1 -14 4 0 11 -13 13 -23 3z"/>
<path d="M4010 4535 c0 -11 7 -15 23 -13 12 2 22 8 22 13 0 6 -10 11 -22 13
-16 2 -23 -2 -23 -13z"/>
<path d="M4262 4538 c5 -15 37 -18 41 -3 1 6 -9 12 -22 13 -16 3 -22 -1 -19
-10z"/>
<path d="M2691 4530 c-11 -6 -8 -11 9 -20 15 -8 25 -9 32 -2 14 14 -24 33 -41
22z"/>
<path d="M2986 4531 c-8 -13 4 -43 16 -39 5 2 9 7 9 11 -1 4 -1 14 -1 22 0 17
-16 20 -24 6z"/>
<path d="M3657 4533 c-10 -10 -8 -43 2 -43 9 0 21 24 21 41 0 11 -14 12 -23 2z"/>
<path d="M3870 4522 c0 -11 7 -25 16 -33 14 -11 15 -9 12 16 -3 32 -28 47 -28
17z"/>
<path d="M4082 4528 c-14 -14 -16 -38 -3 -38 11 0 24 19 27 38 3 15 -8 16 -24
0z"/>
<path d="M4370 4524 c0 -10 7 -14 22 -12 32 5 35 28 4 28 -17 0 -26 -5 -26
-16z"/>
<path d="M2626 4515 c4 -8 17 -15 31 -15 22 0 24 -2 13 -15 -11 -13 -8 -15 14
-15 16 0 26 5 26 15 0 8 -6 15 -14 15 -7 0 -19 7 -26 15 -7 8 -21 15 -31 15
-12 0 -16 -5 -13 -15z"/>
<path d="M3035 4520 c-8 -13 3 -50 16 -50 12 0 12 47 0 55 -5 3 -12 1 -16 -5z"/>
<path d="M3248 4523 c-21 -5 -24 -33 -4 -33 16 0 40 27 29 32 -4 3 -16 3 -25
1z"/>
<path d="M3816 4514 c-4 -11 0 -15 16 -12 12 2 23 9 26 16 6 18 -35 15 -42 -4z"/>
<path d="M4423 4510 c-3 -11 -9 -20 -14 -20 -14 0 -11 -17 4 -23 8 -3 20 -1
28 4 12 8 12 10 0 18 -11 7 -9 10 8 16 27 8 27 25 0 25 -12 0 -23 -8 -26 -20z"/>
<path d="M3993 4513 c-19 -7 -16 -20 6 -26 29 -7 48 9 25 21 -11 5 -25 7 -31
5z"/>
<path d="M4230 4505 c7 -8 19 -15 26 -15 8 0 13 -6 12 -12 -2 -7 7 -14 19 -16
12 -2 27 -10 34 -18 10 -12 8 -17 -7 -29 -10 -8 -14 -15 -9 -16 19 -4 40 -6
62 -8 15 0 21 -6 17 -15 -9 -22 13 -28 32 -9 17 17 17 18 0 21 -10 2 -15 10
-12 18 3 8 0 14 -6 14 -7 0 -3 6 8 14 23 17 14 30 -15 21 -12 -3 -21 -15 -21
-25 0 -27 -17 -34 -23 -10 -3 11 -1 20 5 20 6 0 8 6 5 14 -3 8 2 16 14 19 25
7 25 27 -1 27 -10 0 -24 -9 -30 -20 -13 -24 -30 -26 -30 -5 0 8 -6 15 -14 15
-8 0 -16 7 -20 15 -3 8 -17 15 -32 15 -22 0 -25 -2 -14 -15z"/>
<path d="M4305 4510 c-8 -12 20 -24 35 -15 5 3 10 10 10 16 0 12 -37 12 -45
-1z"/>
<path d="M2750 4495 c-7 -8 -10 -19 -6 -22 9 -9 38 8 38 22 -1 16 -18 16 -32
0z"/>
<path d="M3084 4495 c-4 -9 0 -24 10 -33 15 -15 16 -14 16 10 0 32 -17 46 -26
23z"/>
<path d="M2800 4485 c-7 -9 -10 -18 -7 -21 7 -8 47 14 47 26 0 15 -26 12 -40
-5z"/>
<path d="M3138 4482 c-7 -25 16 -51 25 -28 3 8 0 22 -7 32 -12 16 -13 16 -18
-4z"/>
<path d="M4190 4492 c0 -15 22 -30 36 -25 11 4 12 9 3 19 -12 15 -39 19 -39 6z"/>
<path d="M2854 4476 c-22 -17 -11 -35 13 -20 19 12 29 34 16 34 -5 0 -18 -6
-29 -14z"/>
<path d="M3812 4479 c-13 -5 -20 -13 -17 -19 8 -13 18 -13 40 3 23 17 8 28
-23 16z"/>
<path d="M2555 4470 c-9 -15 4 -30 25 -30 13 0 17 5 14 14 -7 18 -32 28 -39
16z"/>
<path d="M3187 4474 c-3 -4 -2 -16 4 -26 13 -24 33 -10 23 15 -6 18 -16 21
-27 11z"/>
<path d="M3302 4460 c1 -13 9 -25 16 -28 17 -5 15 23 -4 39 -14 11 -15 10 -12
-11z"/>
<path d="M4151 4470 c-11 -6 -8 -11 9 -20 15 -8 25 -9 32 -2 14 14 -24 33 -41
22z"/>
<path d="M2893 4463 c-7 -2 -13 -9 -13 -15 0 -14 43 -6 48 10 4 12 -12 15 -35
5z"/>
<path d="M2612 4448 c3 -7 15 -15 28 -16 21 -3 22 -2 11 12 -16 19 -44 21 -39
4z"/>
<path d="M2710 4431 c0 -19 23 -35 34 -24 7 8 -12 43 -24 43 -6 0 -10 -9 -10
-19z"/>
<path d="M2937 4444 c-14 -14 -7 -25 13 -22 12 2 21 8 21 13 0 12 -24 18 -34
9z"/>
<path d="M4083 4443 c-7 -2 -13 -9 -13 -15 0 -12 41 -6 41 7 1 12 -11 15 -28
8z"/>
<path d="M2529 4429 c-11 -6 -11 -11 -1 -21 10 -10 15 -9 28 4 13 13 13 16 1
21 -7 3 -20 1 -28 -4z"/>
<path d="M2760 4428 c0 -7 8 -22 16 -33 15 -19 15 -19 12 9 -3 29 -28 51 -28
24z"/>
<path d="M4137 4429 c-20 -12 -23 -29 -3 -29 17 0 40 26 29 33 -5 3 -16 1 -26
-4z"/>
<path d="M4261 4426 c-9 -10 -8 -15 3 -19 14 -5 36 10 36 25 0 13 -27 9 -39
-6z"/>
<path d="M2587 4424 c-12 -12 4 -24 30 -24 21 0 24 2 13 15 -13 16 -32 20 -43
9z"/>
<path d="M4427 4423 c-14 -13 -6 -24 15 -21 27 4 36 28 11 28 -11 0 -23 -3
-26 -7z"/>
<path d="M2657 4414 c-10 -11 3 -24 24 -24 10 0 19 7 19 15 0 15 -31 21 -43 9z"/>
<path d="M3000 4401 c0 -17 27 -37 37 -28 7 8 -9 35 -23 41 -9 3 -14 -1 -14
-13z"/>
<path d="M2900 4401 c0 -12 31 -43 37 -37 9 9 -9 46 -23 46 -8 0 -14 -4 -14
-9z"/>
<path d="M2950 4396 c0 -16 24 -38 33 -30 8 9 -11 44 -23 44 -6 0 -10 -6 -10
-14z"/>
<path d="M2491 4386 c-14 -17 8 -29 30 -16 8 5 19 5 26 -1 8 -7 18 -7 29 -1
13 7 24 6 40 -4 18 -13 23 -12 34 1 12 15 4 21 -24 16 -5 -1 -22 2 -37 8 -18
6 -31 6 -34 0 -4 -5 -13 -5 -25 1 -24 13 -25 13 -39 -4z"/>
<path d="M4227 4393 c-12 -11 -8 -23 7 -23 7 0 19 7 26 15 10 12 9 15 -7 15
-11 0 -23 -3 -26 -7z"/>
<path d="M3962 4378 c6 -16 36 -34 44 -25 9 9 -15 37 -33 37 -8 0 -13 -5 -11
-12z"/>
<path d="M4275 4377 c-13 -10 -15 -16 -6 -21 17 -11 41 0 41 19 0 19 -11 19
-35 2z"/>
<path d="M2690 4366 c0 -8 -10 -16 -22 -18 -12 -2 -23 -9 -26 -15 -6 -19 31
-16 49 5 9 9 25 22 35 29 17 11 17 12 -8 12 -18 1 -28 -4 -28 -13z"/>
<path d="M3802 4368 c3 -7 15 -15 28 -16 21 -3 22 -2 11 12 -16 19 -44 21 -39
4z"/>
<path d="M4320 4361 c-15 -29 1 -95 25 -100 18 -3 18 -2 2 22 -12 19 -13 27
-4 30 9 3 9 7 0 17 -9 10 -7 17 10 31 l22 18 -22 1 c-12 0 -27 -9 -33 -19z"/>
<path d="M2758 4363 c-20 -5 -23 -18 -8 -28 12 -7 40 12 40 26 0 9 -4 10 -32
2z"/>
<path d="M3752 4358 c3 -7 15 -15 27 -16 16 -3 22 1 19 10 -3 7 -15 15 -27 16
-16 3 -22 -1 -19 -10z"/>
<path d="M3710 4351 c0 -15 29 -33 41 -25 9 5 7 11 -6 21 -22 15 -35 17 -35 4z"/>
<path d="M4228 4348 c-7 -21 3 -48 18 -48 18 0 17 20 0 43 -10 13 -15 15 -18
5z"/>
<path d="M4412 4344 c-6 -11 -11 -13 -16 -5 -10 15 -39 14 -34 -1 5 -15 98
-21 98 -7 0 4 -9 13 -19 19 -16 8 -22 6 -29 -6z"/>
<path d="M2575 4340 c-8 -12 20 -24 35 -15 5 3 10 10 10 16 0 12 -37 12 -45
-1z"/>
<path d="M2817 4343 c-14 -13 -6 -24 15 -21 27 4 36 28 11 28 -11 0 -23 -3
-26 -7z"/>
<path d="M3917 4344 c-8 -9 11 -44 24 -44 6 0 9 10 7 22 -3 22 -19 34 -31 22z"/>
<path d="M4180 4332 c0 -11 7 -23 16 -26 11 -4 15 0 12 16 -4 28 -28 36 -28
10z"/>
<path d="M3151 4321 c-6 -10 -7 -21 -4 -25 9 -8 33 14 33 30 0 20 -18 17 -29
-5z"/>
<path d="M3203 4329 c-17 -17 -5 -43 13 -28 15 12 19 39 6 39 -4 0 -13 -5 -19
-11z"/>
<path d="M3244 4325 c-4 -9 0 -24 10 -33 15 -15 16 -14 16 10 0 32 -17 46 -26
23z"/>
<path d="M3864 4324 c3 -9 6 -18 6 -20 0 -2 7 -4 16 -4 11 0 14 5 10 16 -3 9
-6 18 -6 20 0 2 -7 4 -16 4 -11 0 -14 -5 -10 -16z"/>
<path d="M4270 4320 c6 -11 17 -20 26 -20 12 0 12 4 4 20 -6 11 -17 20 -26 20
-12 0 -12 -4 -4 -20z"/>
<path d="M2700 4320 c-13 -9 -13 -11 0 -19 16 -11 43 5 34 20 -7 11 -15 11
-34 -1z"/>
<path d="M3054 4318 c-14 -21 -13 -38 1 -38 7 0 16 8 19 17 8 21 -9 40 -20 21z"/>
<path d="M3097 4323 c-12 -11 -7 -33 7 -33 12 0 26 20 26 36 0 7 -26 5 -33 -3z"/>
<path d="M2761 4311 c-7 -5 -11 -13 -7 -19 8 -13 48 -3 43 11 -5 15 -20 18
-36 8z"/>
<path d="M3292 4299 c1 -12 9 -24 16 -27 9 -3 13 3 10 19 -1 12 -9 24 -16 27
-9 3 -13 -3 -10 -19z"/>
<path d="M4363 4306 c4 -10 7 -22 7 -27 0 -5 7 -9 15 -9 8 0 15 7 15 17 0 14
2 14 20 -2 22 -20 36 -15 26 10 -3 10 -16 15 -34 13 -15 -1 -34 2 -41 7 -11 6
-13 4 -8 -9z"/>
<path d="M4456 4312 c-9 -8 14 -32 30 -32 21 0 17 27 -5 33 -11 3 -22 2 -25
-1z"/>
<path d="M2595 4300 c-3 -5 -4 -14 0 -19 3 -5 1 -12 -5 -16 -5 -3 -10 -10 -10
-16 0 -14 26 -11 40 6 10 12 10 15 0 15 -7 0 -2 9 11 20 l24 19 -27 1 c-15 0
-30 -4 -33 -10z"/>
<path d="M2830 4295 c0 -7 8 -16 17 -19 21 -8 40 9 21 20 -21 14 -38 13 -38
-1z"/>
<path d="M4117 4291 c7 -29 35 -37 31 -9 -2 13 -11 24 -20 26 -12 2 -15 -2
-11 -17z"/>
<path d="M2647 4284 c-10 -11 3 -24 24 -24 10 0 19 7 19 15 0 15 -31 21 -43 9z"/>
<path d="M2954 4275 c-7 -17 4 -37 17 -30 12 8 12 45 -1 45 -6 0 -13 -7 -16
-15z"/>
<path d="M3167 4284 c-10 -11 -9 -54 2 -54 14 0 22 30 13 46 -4 8 -11 11 -15
8z"/>
<path d="M3910 4276 c0 -18 26 -40 34 -27 9 14 -4 41 -20 41 -8 0 -14 -6 -14
-14z"/>
<path d="M4226 4281 c-7 -11 20 -48 29 -39 9 8 -4 48 -15 48 -5 0 -11 -4 -14
-9z"/>
<path d="M4270 4275 c0 -15 26 -32 36 -23 2 3 2 13 -2 22 -8 20 -34 21 -34 1z"/>
<path d="M2713 4273 c-7 -2 -13 -9 -13 -15 0 -14 43 -6 48 10 4 12 -12 15 -35
5z"/>
<path d="M2766 4264 c-4 -11 0 -15 16 -12 12 2 23 9 26 16 6 18 -35 15 -42 -4z"/>
<path d="M3107 4267 c-3 -8 -1 -20 4 -28 8 -12 10 -12 19 1 5 8 8 19 7 24 -5
16 -24 18 -30 3z"/>
<path d="M2816 4254 c-21 -21 -11 -37 15 -24 10 6 19 15 19 20 0 17 -19 20
-34 4z"/>
<path d="M2915 4258 c-4 -10 -4 -26 0 -35 6 -17 7 -17 16 0 7 11 7 23 0 35 -9
16 -10 16 -16 0z"/>
<path d="M4365 4251 c-6 -10 24 -45 32 -37 7 7 -7 46 -17 46 -5 0 -11 -4 -15
-9z"/>
<path d="M2627 4243 c-14 -13 -6 -24 15 -21 27 4 36 28 11 28 -11 0 -23 -3
-26 -7z"/>
<path d="M2867 4243 c-4 -3 -7 -15 -7 -25 0 -26 24 -17 28 10 3 21 -8 29 -21
15z"/>
<path d="M4320 4232 c0 -11 7 -23 16 -26 11 -4 15 0 12 16 -4 28 -28 36 -28
10z"/>
<path d="M2678 4226 c-29 -28 -21 -47 10 -27 8 5 12 17 10 26 -3 18 -4 18 -20
1z"/>
<path d="M2720 4225 c-10 -12 -9 -15 8 -15 11 0 25 7 32 15 10 12 9 15 -8 15
-11 0 -25 -7 -32 -15z"/>
<path d="M2550 4215 c-10 -12 -9 -15 8 -15 11 0 25 7 32 15 10 12 9 15 -8 15
-11 0 -25 -7 -32 -15z"/>
<path d="M2772 4218 c-16 -16 -15 -38 2 -38 15 0 29 37 17 45 -4 2 -13 -1 -19
-7z"/>
<path d="M3134 4217 c-3 -9 -3 -25 1 -34 6 -16 8 -16 18 5 7 16 7 26 -1 34 -8
8 -13 7 -18 -5z"/>
<path d="M2610 4189 c-7 -11 -9 -23 -6 -26 8 -9 36 17 36 33 0 21 -18 17 -30
-7z"/>
<path d="M2817 4203 c-4 -3 -7 -15 -7 -25 0 -26 24 -17 28 10 3 21 -8 29 -21
15z"/>
<path d="M4367 4198 c-2 -7 3 -21 11 -31 15 -16 14 -17 -2 -11 -14 5 -17 2
-14 -16 5 -38 25 -34 33 6 4 26 2 41 -8 51 -12 12 -16 13 -20 1z"/>
<path d="M4317 4194 c-8 -9 11 -44 23 -44 6 0 10 6 10 14 0 16 -24 38 -33 30z"/>
<path d="M2507 4173 c-14 -13 -6 -24 15 -21 27 4 36 28 11 28 -11 0 -23 -3
-26 -7z"/>
<path d="M2567 4173 c-4 -3 -7 -15 -7 -25 0 -26 24 -17 28 10 3 21 -8 29 -21
15z"/>
<path d="M2640 4165 c-7 -9 -10 -18 -7 -21 10 -11 37 5 37 21 0 19 -14 19 -30
0z"/>
<path d="M2597 4143 c-4 -3 -7 -15 -7 -25 0 -26 24 -17 28 10 3 21 -8 29 -21
15z"/>
<path d="M2562 4108 c-14 -14 -16 -35 -3 -43 13 -8 31 28 22 43 -5 9 -10 9
-19 0z"/>
<path d="M2496 4038 c3 -5 10 -6 15 -3 13 9 11 12 -6 12 -8 0 -12 -4 -9 -9z"/>
<path d="M4508 3983 c7 -3 16 -2 19 1 4 3 -2 6 -13 5 -11 0 -14 -3 -6 -6z"/>
<path d="M2706 3495 c-9 -26 -7 -32 5 -12 6 10 9 21 6 23 -2 3 -7 -2 -11 -11z"/>
<path d="M2797 3441 c-4 -17 -3 -21 5 -13 5 5 8 16 6 23 -3 8 -7 3 -11 -10z"/>
<path d="M3990 3241 c0 -6 4 -13 10 -16 6 -3 7 1 4 9 -7 18 -14 21 -14 7z"/>
<path d="M3191 3204 c0 -11 3 -14 6 -6 3 7 2 16 -1 19 -3 4 -6 -2 -5 -13z"/>
<path d="M3270 2852 c-62 -30 -76 -114 -27 -159 12 -12 48 -37 79 -57 63 -40
80 -62 72 -93 -6 -22 -43 -43 -75 -43 -35 0 -80 33 -86 63 -9 45 -25 34 -25
-18 0 -37 4 -44 38 -55 50 -17 139 -8 172 17 15 11 31 36 36 55 15 61 3 83
-82 139 -95 64 -105 75 -90 103 15 28 28 36 61 36 36 0 67 -16 67 -35 0 -31
16 -13 18 20 3 35 2 35 -40 36 -24 0 -53 2 -65 3 -13 2 -37 -4 -53 -12z"/>
<path d="M3755 2863 c-119 -25 -175 -87 -175 -195 0 -64 30 -121 80 -155 32
-20 56 -27 115 -31 66 -4 81 -2 127 22 64 31 85 59 98 125 14 77 -6 143 -59
189 -39 33 -133 56 -186 45z m88 -35 c48 -25 77 -92 72 -169 -7 -127 -93 -194
-181 -140 -85 52 -89 236 -6 301 28 22 82 26 115 8z"/>
<path d="M2489 2844 c18 -13 19 -26 19 -181 -1 -93 -5 -180 -10 -195 -12 -33
-40 -59 -67 -61 -33 -2 -25 -15 15 -23 48 -9 98 15 121 58 15 28 19 63 21 216
2 102 8 182 13 182 5 0 9 4 9 9 0 5 -32 9 -70 9 -63 0 -69 -2 -51 -14z"/>
<path d="M2888 2818 c-47 -127 -141 -316 -160 -325 -16 -7 -7 -9 37 -9 32 0
53 2 47 4 -15 5 -15 27 0 69 12 33 13 33 74 33 l62 0 17 -42 c15 -38 15 -43 1
-53 -12 -9 2 -11 59 -10 41 1 78 4 81 8 4 4 0 7 -8 7 -16 0 -22 11 -123 233
-32 70 -61 127 -64 127 -4 0 -14 -19 -23 -42z m31 -155 l21 -53 -50 0 c-28 0
-50 2 -50 4 0 19 45 115 51 109 4 -4 17 -32 28 -60z"/>
<path d="M4156 2688 c2 -159 1 -174 -17 -188 -17 -14 -12 -15 55 -16 61 0 71
2 58 12 -14 10 -17 32 -17 123 l-1 111 36 -33 c19 -19 76 -73 127 -121 50 -49
94 -87 98 -87 4 1 6 80 5 176 -1 174 -1 175 22 185 17 7 3 9 -55 8 -63 0 -74
-3 -61 -13 14 -10 17 -31 18 -118 1 -59 -2 -106 -6 -105 -4 2 -62 55 -129 118
-67 63 -125 116 -128 118 -3 1 -5 -76 -5 -170z"/>
<path d="M2127 2071 c1 -69 5 -97 15 -100 7 -2 36 -14 63 -26 65 -29 99 -37
129 -29 33 8 42 32 10 26 -32 -6 -161 27 -167 43 -3 7 -5 50 -4 96 1 83 1 84
-23 85 l-25 1 2 -96z"/>
<path d="M2347 2090 c-20 -45 -37 -86 -37 -91 0 -5 -5 -9 -11 -9 -5 0 -8 -4
-4 -10 9 -15 33 0 39 26 9 33 63 35 75 2 5 -13 7 -25 6 -28 -2 -3 10 -5 26 -5
16 0 29 3 29 7 0 3 -19 47 -43 98 l-43 91 -37 -81z m31 -48 c-27 -5 -30 1 -17
34 l11 29 12 -30 c11 -27 11 -30 -6 -33z"/>
<path d="M2585 2087 c1 -45 -2 -89 -6 -97 -5 -12 0 -15 21 -15 29 0 29 0 26
58 -2 31 -1 57 3 57 3 0 33 -25 66 -56 l60 -56 2 29 c1 15 4 58 5 95 3 62 2
67 -17 63 -11 -2 -22 -4 -25 -4 -3 -1 -3 -26 -1 -57 l3 -57 -31 22 c-17 12
-36 30 -44 39 -7 9 -24 27 -38 39 l-25 23 1 -83z"/>
<path d="M2893 2077 c1 -51 5 -95 10 -98 13 -9 106 0 129 12 46 24 55 107 16
146 -20 20 -37 25 -90 28 l-65 4 0 -92z m123 48 c12 -18 15 -38 11 -67 -6 -47
-30 -70 -67 -66 -23 3 -24 6 -25 81 l-1 77 33 0 c24 0 37 -7 49 -25z"/>
<path d="M3196 2157 c-31 -23 -17 -67 32 -100 45 -30 53 -51 25 -65 -24 -13
-63 3 -63 25 -1 17 -1 17 -11 0 -16 -27 3 -42 51 -41 49 2 70 18 70 55 0 22
-10 35 -45 59 -25 17 -45 37 -45 45 0 18 39 30 53 16 15 -15 24 -14 24 4 0 19
-66 21 -91 2z"/>
<path d="M3454 2156 c-42 -19 -61 -65 -46 -115 12 -40 39 -60 87 -66 30 -3 84
12 86 23 0 4 2 16 4 26 3 16 -1 14 -19 -8 -44 -56 -121 -24 -118 50 2 54 9 70
38 83 33 15 69 5 82 -22 l11 -22 0 22 c2 41 -63 56 -125 29z"/>
<path d="M3760 2160 c0 -5 -13 -39 -30 -75 -16 -36 -30 -68 -30 -72 0 -4 -7
-15 -17 -25 -9 -10 -11 -18 -5 -18 15 0 42 29 42 46 0 9 11 14 34 14 28 0 36
-5 43 -27 7 -19 16 -27 36 -27 15 -1 27 -1 27 0 0 1 -20 45 -45 98 -43 90 -55
110 -55 86z m20 -112 c0 -5 -11 -8 -24 -8 -24 0 -24 2 -14 31 l11 32 13 -24
c7 -13 13 -27 14 -31z"/>
<path d="M3965 2071 l0 -96 26 0 25 0 -1 88 c-1 83 0 87 21 87 30 0 39 -46 13
-68 -21 -18 -16 -34 9 -25 27 10 52 35 52 53 0 37 -25 53 -86 55 l-59 2 0 -96z"/>
<path d="M4218 2074 c3 -92 8 -103 39 -91 3 1 7 43 7 94 l1 92 -25 -1 -25 -1
3 -93z"/>
<path d="M4528 2108 l-3 -57 -58 54 c-32 30 -61 55 -65 55 -4 0 -6 -37 -5 -82
1 -46 -3 -88 -8 -94 -6 -7 -1 -10 14 -8 12 1 28 3 34 3 8 1 10 8 5 24 -9 25
-8 74 1 83 3 4 31 -17 61 -46 30 -28 57 -51 61 -51 3 1 7 41 8 91 2 87 1 89
-20 88 -20 -2 -22 -9 -25 -60z"/>
<path d="M4745 2161 c-33 -14 -55 -46 -57 -82 -2 -69 47 -112 118 -103 47 6
71 26 76 65 4 26 2 29 -23 29 -26 0 -28 -3 -23 -29 12 -58 -64 -75 -94 -20
-18 34 -8 100 18 121 29 23 51 23 83 -2 22 -18 25 -18 23 -3 -4 29 -75 42
-121 24z"/>
</g>
</svg>
