
        <svg xmlns="http://www.w3.org/2000/svg" xmlns:xlink="http://www.w3.org/1999/xlink" version="1.1" width="3192" 
        height="3192" viewBox="0 0 3192 3192">
			<rect fill="#2f4d01" width="3192" height="3192"/>
			<g transform="scale(9.6) translate(10, 10)">
				<defs id="SvgjsDefs2268"></defs><g id="SvgjsG2269" featureKey="rootContainer" transform="matrix(6.188118811881188,0,0,6.188118811881188,0,0.06187707185745239)" fill="#bfd904"><path xmlns="http://www.w3.org/2000/svg" d="M25.25 50.49A25.25 25.25 0 1 1 50.5 25.24a25.28 25.28 0 0 1-25.25 25.25zm0-50.14a24.89 24.89 0 1 0 24.89 24.89A24.92 24.92 0 0 0 25.25.35z"></path></g><g id="SvgjsG2270" featureKey="symbolFeature-0" transform="matrix(1.0876812843632353,0,0,1.0876812843632353,99.26640076602988,63.05406196147169)" fill="#bfd904"><path xmlns="http://www.w3.org/2000/svg" d="M80.847,51.213c-0.34,0-0.824,0.174-1.438,0.469c0.366-0.331,0.495-0.499,0.523-0.54c1.24-1.716,0.417-3.788-0.244-5.453  c-0.133-0.335-0.259-0.652-0.366-0.955c-0.134-0.381-0.319-0.744-0.498-1.095c-0.261-0.509-0.507-0.99-0.565-1.461  c-0.063-0.507,0.087-1.037,0.247-1.598c0.147-0.517,0.299-1.052,0.298-1.618c-0.001-0.217-0.145-0.404-0.345-0.466  c0.347-1.586-0.516-2.952-1.355-4.283c-0.277-0.438-0.563-0.892-0.818-1.363c-0.475-0.882-0.851-1.578-1.504-2.373  c-0.153-0.186-0.266-0.346-0.367-0.506c-0.022-0.103-0.08-0.196-0.162-0.266c-0.009-0.015-0.018-0.03-0.027-0.046  c-0.101-0.169-0.215-0.361-0.364-0.584c-0.168-0.251-0.353-0.502-0.531-0.745c-0.566-0.769-1.151-1.793-1.238-2.661  C72.066,25.421,71.854,25,71.604,25c-0.004,0-0.008,0-0.012,0c0.078,0,0.128-0.189,0.111-0.42l0.045-0.328  c0.004-0.046,0.003-0.035-0.006-0.081c-0.068-0.367-0.409-0.639-0.71-0.904c-0.062-0.055-0.12-0.09-0.165-0.134  c-0.19-0.186-0.388-0.354-0.579-0.525c-0.291-0.259-0.565-0.5-0.821-0.778c-0.351-0.38-0.631-0.817-0.929-1.281  c-0.309-0.481-0.627-0.977-1.034-1.414c-0.382-0.409-0.805-0.713-1.214-1.008c-0.409-0.294-0.796-0.573-1.128-0.943  c-0.206-0.229-0.461-0.469-0.73-0.723c-0.543-0.511-1.158-1.09-1.327-1.561c-0.012-0.033-0.026-0.063-0.045-0.093l-0.237-0.384  c-0.118-0.191-0.352-0.277-0.566-0.208c-0.214,0.069-0.354,0.275-0.338,0.5c0.009,0.118,0.013,0.241,0.015,0.368  c-0.088-0.201-0.251-0.327-0.575-0.448c-0.093-0.035-0.208-0.078-0.355-0.148c-1.144-0.538-2.04-1.061-2.852-1.681  c-0.044-0.046-0.094-0.085-0.15-0.117c-0.438-0.346-0.854-0.721-1.273-1.146c-0.523-0.529-1.108-0.933-1.673-1.322  c-0.248-0.171-0.504-0.348-0.747-0.53c-0.144-0.107-0.29-0.235-0.445-0.37c-0.499-0.432-1.063-0.922-1.817-1.01  c-0.235-0.028-0.457,0.118-0.525,0.344c-0.068,0.228,0.035,0.471,0.247,0.578c0.416,0.212,0.7,0.446,0.979,0.806  c1.086,1.406,0.552,3.778,0.161,5.511l-0.043,0.193c-0.158,0.705-0.291,1.437-0.419,2.146c-0.279,1.542-0.568,3.137-1.135,4.537  c-0.191,0.473-0.384,0.719-0.483,0.801c-0.031-0.035-0.081-0.103-0.141-0.225c-0.271-0.549,0.082-1.92,0.272-2.657  c0.039-0.153,0.075-0.293,0.104-0.417c0.079-0.33,0.163-0.664,0.247-1.002c0.602-2.416,1.283-5.153,0.634-7.692  c-0.041-0.16-0.088-0.47-0.139-0.798c-0.153-1.003-0.272-1.686-0.514-2.021c-0.358-0.496-1.361-0.628-2.637-0.749  c-0.154-0.015-0.29-0.027-0.395-0.04c-0.164-0.02-0.33-0.04-0.497-0.059c-0.77-0.091-1.564-0.184-2.303-0.336  c-0.458-0.094-0.553-0.129-0.924-0.338c-0.008-0.004-0.013-0.007-0.014-0.008c-0.004-0.008-0.013-0.028-0.019-0.043  c-0.126-0.302-0.344-0.456-0.646-0.456c-0.078,0-0.164,0.011-0.262,0.033c-0.144,0.033-0.265,0.128-0.331,0.26  c-0.047,0.096-0.093,0.188-0.137,0.278c-0.373,0.763-0.611,1.25-1.176,1.751c-0.047,0.024-0.091,0.055-0.129,0.094  c-0.018,0.018-0.032,0.037-0.05,0.056c-0.087,0.07-0.18,0.141-0.282,0.213c-0.202,0.143-0.401,0.305-0.612,0.478  c-0.455,0.371-0.925,0.755-1.382,0.893c-0.169,0.051-0.297,0.189-0.335,0.361c-0.015,0.064-0.027,0.127-0.038,0.19  c-0.085,0.043-0.165,0.083-0.242,0.122c-0.782,0.388-1.298,0.644-2.797,2.312c-0.597,0.663-1.213,1.414-1.683,2.413  c-0.059,0.125-0.148,0.304-0.252,0.511c-0.539,1.077-0.954,1.938-0.992,2.409c-0.001,0.021-0.003,0.042-0.004,0.063  c-0.657,0.724-1.057,1.56-1.443,2.369c-0.201,0.419-0.395,0.822-0.618,1.207c-0.033,0.041-0.061,0.085-0.078,0.132  c-0.088,0.144-0.182,0.285-0.281,0.423c-1.178,1.627-1.523,3.101-1.922,4.809c-0.063,0.27-0.128,0.546-0.198,0.832  c-0.006,0.024-0.011,0.05-0.013,0.076l-0.035,0.429c-0.015,0.178,0.068,0.35,0.217,0.448c0.834,0.554,1.316,1.268,1.875,2.095  c0.208,0.309,0.424,0.627,0.668,0.952c0.925,1.227,1.883,2.016,2.993,2.928l0.057,0.047c0.405,0.333,0.761,0.699,1.139,1.086  c0.623,0.641,1.269,1.303,2.143,1.8c0.584,0.332,1.165,0.698,1.728,1.051c0.649,0.408,1.32,0.831,2.003,1.206  c0.415,0.228,0.832,0.362,1.201,0.481c0.487,0.157,0.898,0.29,1.241,0.593c-0.126,0.039-0.267,0.059-0.424,0.059  c-0.933,0-2.146-0.649-3.099-1.215c-0.421-0.249-0.848-0.498-1.277-0.748c-2.055-1.196-4.179-2.432-5.892-3.965  c-0.357-0.32-0.693-0.669-1.018-1.007c-0.402-0.418-0.818-0.852-1.282-1.237c-0.191-0.159-0.385-0.299-0.556-0.423  c-0.732-0.532-0.896-0.68-0.63-1.261c0.094-0.207,0.033-0.451-0.146-0.59c-0.179-0.139-0.431-0.136-0.607,0.006  c-1.221,0.985-2.825,2.544-3.532,4.372l-0.079,0.204c-0.333,0.854-0.837,2.146-0.856,2.969c-0.008,0.365,0.104,0.74,0.212,1.103  c0.224,0.745,0.293,1.127-0.031,1.415c-0.103,0.09-0.162,0.221-0.164,0.357c-0.003,0.137,0.053,0.269,0.152,0.363  c0.249,0.237,0.486,0.476,0.736,0.729c0.182,0.184,0.364,0.369,0.554,0.555c0.287,0.281,0.556,0.587,0.841,0.91  c0.49,0.558,0.997,1.135,1.609,1.582c0.802,0.586,1.824,0.905,2.727,1.186c0.258,0.081,0.501,0.156,0.733,0.235  c0.486,0.167,1.022,0.375,1.591,0.597c1.545,0.601,3.293,1.281,4.653,1.325L38.8,49.45c0.336,0.146,0.626,0.238,0.886,0.298  c-0.072-0.013-0.14-0.026-0.203-0.039c-0.728-0.146-1.493-0.271-2.302-0.404c-2.254-0.369-4.584-0.75-6.378-1.632  c-0.626-0.308-1.204-0.521-1.763-0.729c-1.304-0.482-2.333-0.863-3.256-2.192c-0.116-0.168-0.325-0.246-0.522-0.195  c-0.198,0.05-0.344,0.218-0.366,0.421c-0.043,0.392-0.254,0.767-0.478,1.164c-0.229,0.405-0.465,0.825-0.574,1.331  c-0.103,0.48-0.237,1.319-0.164,2.171c-0.037,0.128-0.021,0.269,0.049,0.387c0.014,0.084,0.029,0.167,0.049,0.25l0.188,1.198  c0.072,1.283,0.704,2.814,1.652,4.003c0.317,0.397,0.659,0.689,0.961,0.947c0.497,0.425,0.89,0.761,1.059,1.445  c0.108,0.44,0.157,0.815,0.204,1.178c0.103,0.797,0.201,1.551,0.922,2.523c0.126,0.169,0.256,0.33,0.392,0.486  c0.023,0.031,0.052,0.062,0.083,0.094c0.412,0.462,0.856,0.874,1.291,1.274c0.447,0.413,0.909,0.839,1.321,1.31  c0.898,1.03,1.771,1.903,2.918,2.919c0.47,0.416,0.862,0.939,1.278,1.495c0.42,0.562,0.855,1.143,1.396,1.633  c0.675,0.613,1.49,1.083,2.374,1.386c0.085,0.051,0.195,0.094,0.333,0.105c0.648,0.188,1.328,0.289,2.013,0.289  c0.774,0,1.526-0.125,2.234-0.373c0.346-0.121,0.646-0.266,0.938-0.407c0.538-0.26,1.002-0.484,1.615-0.484  c0.186,0,0.375,0.02,0.58,0.061c0.211,0.042,0.453,0.122,0.709,0.207c0.479,0.158,1.023,0.337,1.581,0.337  c0.141,0,0.278-0.012,0.41-0.035l-1.196,20.787c-0.012,0.195,0.095,0.378,0.269,0.466c0.07,0.034,0.146,0.052,0.221,0.052  c0.112,0,0.224-0.039,0.314-0.114c0.282-0.237,1.048-0.764,1.605-1.049c0.155-0.08,0.257-0.236,0.266-0.411l0.996-19.323  c0.001-0.026,0.001-0.053-0.003-0.08c-0.047-0.421-0.047-1.092,0.001-1.561c0.098-0.965,0.035-1.983-0.024-2.969  c-0.044-0.724-0.089-1.473-0.071-2.199c0.007-0.319-0.001-0.628-0.01-0.926c-0.016-0.559-0.03-1.088,0.063-1.614  c0.104-0.581,0.372-1.273,0.612-1.735c0.021,0.556-0.015,1.315-0.03,1.636l-0.01,0.196c-0.009,0.202-0.028,0.408-0.048,0.627  c-0.047,0.509-0.095,1.035-0.024,1.568c0.051,0.382,0.173,0.715,0.29,1.038c0.104,0.283,0.201,0.55,0.237,0.822l0.003,0.019  c0.155,1.143,0.248,1.832,1.273,2.864c0.847,0.852,1.629,1.312,2.793,1.643c0.972,0.276,2.189,0.434,3.341,0.434  c1.119,0,2.704-0.145,3.897-0.834l0.727-0.423c0.952-0.411,1.935-0.765,3.182-1.147c0.284-0.087,0.655-0.123,1.049-0.161  c0.68-0.065,1.384-0.133,1.917-0.484c0.891-0.586,1.799-2.521,2.056-3.101l0.041-0.091c0.387-0.872,0.642-1.448,1.364-2.006  c1.87-1.446,3.067-3.068,4.131-5.598c0.131-0.309,0.268-0.616,0.399-0.913c0.315-0.71,0.642-1.445,0.887-2.226  c0.046-0.145,0.106-0.325,0.172-0.524c0.614-1.849,0.792-2.577,0.567-2.977C81.415,51.427,81.236,51.213,80.847,51.213z   M66.654,22.985c0.05-0.282,0.109-0.567,0.171-0.869c0.127-0.617,0.256-1.248,0.322-1.877c0.196,0.263,0.378,0.547,0.566,0.841  c0.308,0.479,0.625,0.975,1.032,1.417c0.289,0.313,0.595,0.586,0.891,0.85c0.191,0.171,0.373,0.332,0.548,0.503  c0.06,0.057,0.127,0.117,0.2,0.181c0.101,0.089,0.297,0.262,0.376,0.366l-0.036,0.362c-0.003,0.036-0.003,0.072,0.001,0.108  c0.019,0.146-0.107,0.385-0.229,0.616c-0.112,0.213-0.239,0.455-0.308,0.717c-0.065,0.252-0.093,0.481-0.119,0.703  c-0.031,0.264-0.061,0.514-0.157,0.772c-0.254,0.688-0.778,1.422-1.285,2.133c-0.209,0.292-0.405,0.568-0.582,0.839  c-0.391,0.598-0.631,1.21-0.861,1.802c-0.158,0.404-0.321,0.822-0.532,1.229c-0.459,0.889-1.111,1.485-1.867,2.175  c-0.097,0.088-0.194,0.177-0.293,0.268c-0.309,0.285-0.614,0.57-0.918,0.856c-0.641,0.601-1.305,1.222-1.976,1.806  c-0.359,0.312-0.959,0.922-1.428,1.521c-0.484,0.62-0.992,1.402-0.618,1.955c0.072,0.108,0.247,0.29,0.592,0.29  c1.08,0,4.046-2.174,5.32-3.284c2.266-1.972,4.342-3.963,4.859-6.639c0.035-0.185,0.071-0.376,0.107-0.573  c0.18-0.969,0.383-2.068,0.732-2.893l0.031-0.075c0.198-0.468,0.384-0.906,0.536-1.359c0.246,0.422,0.536,0.814,0.809,1.185  c0.181,0.245,0.351,0.476,0.506,0.708c0.136,0.203,0.238,0.375,0.337,0.542c0.002,0.003,0.004,0.006,0.006,0.009  c-0.353,1.086-0.417,2.194-0.478,3.269c-0.097,1.683-0.188,3.272-1.356,4.669c-2.979,3.558-7.01,5.999-10.189,7.727  c-2.486,1.353-5.701,2.937-8.814,3.409c-0.055-0.362-0.109-0.724-0.163-1.085c-0.218-1.445-0.439-2.914-0.684-4.391  c0.185-0.125,0.371-0.25,0.561-0.377c3.435-2.311,7.327-4.931,9.323-8.57c0.206-0.375,0.412-0.75,0.619-1.123  C64.044,30.378,65.944,26.946,66.654,22.985z M69.976,29.589c-0.221,0.74-0.37,1.549-0.507,2.287  c-0.036,0.194-0.07,0.383-0.106,0.565c-0.458,2.37-2.409,4.231-4.541,6.086c-1.431,1.246-3.348,2.508-4.252,2.911  c0.32-0.523,1.044-1.37,1.672-1.917c0.686-0.596,1.354-1.224,2.002-1.831c0.304-0.284,0.606-0.568,0.912-0.85  c0.098-0.09,0.194-0.178,0.289-0.265c0.792-0.723,1.539-1.405,2.079-2.449c0.233-0.453,0.406-0.895,0.573-1.322  c0.223-0.571,0.434-1.109,0.769-1.623c0.166-0.254,0.357-0.522,0.56-0.806C69.605,30.125,69.794,29.86,69.976,29.589z M58.303,14.78  c0.031-0.229,0.053-0.435,0.067-0.62c0.651,0.424,1.369,0.815,2.214,1.213c0.184,0.086,0.325,0.14,0.429,0.179  c0.012,0.004,0.024,0.009,0.036,0.014c0.009,0.084,0.016,0.208,0.021,0.33l0.008,0.132c0.018,0.335,0.049,0.676,0.08,1.005  c0.021,0.237,0.042,0.46,0.057,0.674c0.07,0.983-0.27,2.126-0.569,3.134c-0.03,0.101-0.06,0.201-0.089,0.3  c-0.104,0.355-0.205,0.715-0.302,1.062c-0.551,1.969-1.07,3.829-2.391,5.362c-0.458,0.531-0.836,1.09-1.201,1.63  c-0.23,0.342-0.47,0.695-0.727,1.037c-0.165,0.221-0.366,0.444-0.578,0.68c-0.492,0.547-1.05,1.166-1.276,1.923  c-0.181,0.604-0.122,1.169,0.161,1.55c0.209,0.28,0.52,0.434,0.874,0.434c0.318,0,0.656-0.123,1.001-0.367  c0.777-0.547,1.077-1.453,1.341-2.252c0.1-0.298,0.192-0.58,0.302-0.821c0.244-0.536,0.524-1.048,0.821-1.59  c0.322-0.588,0.654-1.197,0.936-1.836c0.417-0.95,0.738-1.908,1.048-2.833c0.14-0.417,0.283-0.848,0.436-1.274  c0.134-0.375,0.277-0.763,0.417-1.138c0.725-1.945,1.475-3.957,1.473-6.113c0-0.091,0.001-0.185,0.003-0.279  c0.271,0.301,0.577,0.589,0.867,0.861c0.254,0.239,0.494,0.465,0.673,0.664c0.402,0.448,0.851,0.771,1.284,1.083  c0.169,0.122,0.334,0.241,0.493,0.365c0.023,0.841-0.163,1.75-0.345,2.633c-0.061,0.294-0.123,0.599-0.176,0.893  c-0.682,3.801-2.458,7.012-4.341,10.412c-0.206,0.375-0.414,0.75-0.62,1.126c-1.882,3.431-5.669,5.98-9.012,8.229  c-0.064,0.043-0.129,0.087-0.193,0.13c-0.188-1.089-0.393-2.179-0.62-3.264c-0.274-1.308-0.545-2.652-0.808-3.951  c-0.174-0.865-0.351-1.737-0.529-2.61c0.799-0.243,1.586-0.869,2.147-1.403c0.786-0.747,1.537-1.701,1.96-2.489  c0.925-1.725,1.769-3.549,2.508-5.42c0.252-0.638,0.956-3.176,1.486-5.492C57.979,16.723,58.192,15.613,58.303,14.78z   M57.556,29.624c-0.238,0.438-0.477,0.888-0.687,1.349c-0.131,0.29-0.237,0.61-0.34,0.92c-0.228,0.688-0.462,1.398-0.975,1.759  c-0.241,0.17-0.387,0.188-0.438,0.188c-0.05,0-0.068-0.014-0.088-0.04c-0.076-0.102-0.107-0.353-0.009-0.685  c0.163-0.545,0.622-1.055,1.065-1.548c0.218-0.242,0.443-0.492,0.635-0.748c0.271-0.361,0.516-0.724,0.754-1.075  C57.502,29.704,57.529,29.664,57.556,29.624z M50.502,8.998c0.124,0.218,0.266,1.139,0.334,1.586  c0.057,0.368,0.105,0.686,0.158,0.893c0.587,2.299-0.034,4.797-0.636,7.213c-0.085,0.341-0.17,0.679-0.249,1.011  c-0.028,0.118-0.062,0.253-0.101,0.399c-0.268,1.039-0.635,2.461-0.202,3.336c0.261,0.527,0.599,0.794,1.006,0.794  c0.679,0,1.138-0.781,1.403-1.437c0.605-1.494,0.902-3.139,1.19-4.73c0.127-0.698,0.258-1.42,0.411-2.105l0.044-0.192  c0.331-1.471,0.756-3.357,0.324-4.955c0.104,0.073,0.209,0.146,0.312,0.216c0.553,0.381,1.074,0.741,1.532,1.205  c0.452,0.458,0.899,0.861,1.368,1.23c0.037,0.226,0.07,1.188-0.771,4.778c-0.544,2.318-1.166,4.493-1.355,4.972  c-0.726,1.836-1.553,3.625-2.46,5.317c-0.649,1.21-2.263,2.983-3.442,3.392c-0.548-2.631-1.133-5.255-1.809-7.726  c-0.16-0.895-0.278-1.807-0.384-2.706c1.694-1.78,2.588-3.781,2.965-6.636c0.085-0.644,0.18-2.213,0.125-3.684  c-0.042-1.1-0.155-1.842-0.306-2.348C50.209,8.872,50.414,8.93,50.502,8.998z M45.262,8.19c0.779,0.16,1.596,0.256,2.386,0.349  c0.165,0.019,0.33,0.039,0.493,0.058c0.111,0.014,0.256,0.045,0.421,0.061C48.628,8.664,48.716,8.7,48.818,8.7  c0.039,0,0.404,0.411,0.475,2.667c0.042,1.373-0.046,2.792-0.122,3.366c-0.304,2.296-0.962,3.982-2.148,5.452  c-0.155-1.314-0.335-2.656-0.647-3.96c-0.082-0.341-0.231-1.075-0.421-2.004c-0.673-3.297-1.085-5.159-1.384-6.219  C44.761,8.078,44.956,8.127,45.262,8.19z M42.454,9.566c0.547-0.453,0.87-0.893,1.148-1.389c0.429,1.517,1.077,4.696,1.392,6.24  c0.191,0.937,0.343,1.677,0.428,2.035c0.289,1.205,0.462,2.461,0.611,3.7c-0.96-1.343-2.483-3.987-2.872-4.847l-0.126-0.278  C42.217,13.231,41.204,11.005,42.454,9.566z M39.183,12.33c0.095,0.399,0.243,0.775,0.39,1.145c0.096,0.243,0.195,0.494,0.279,0.753  c0.595,1.811,1.254,3.662,2.016,5.66c0.162,0.425,0.394,0.833,0.618,1.227c0.304,0.536,0.591,1.041,0.683,1.532  c0.034,0.185,0.043,0.314,0.041,0.4c-0.1-0.061-0.246-0.173-0.427-0.369c-0.351-0.382-0.614-0.88-0.893-1.407  c-0.225-0.423-0.456-0.861-0.746-1.256c-0.155-0.212-0.32-0.424-0.479-0.628c-0.474-0.613-0.963-1.247-1.256-1.916  C38.743,15.944,38.348,13.591,39.183,12.33z M37.383,14.658c0.068-0.439,0.139-0.892,0.155-1.354  c0.115-0.117,0.222-0.222,0.321-0.315c-0.364,1.576,0.069,3.537,0.652,4.874c0.341,0.78,0.868,1.462,1.379,2.123  c0.154,0.2,0.314,0.408,0.463,0.609c0.248,0.337,0.453,0.725,0.67,1.136c0.296,0.558,0.602,1.136,1.039,1.611  c0.312,0.34,0.788,0.746,1.277,0.746c0.244,0,0.463-0.101,0.615-0.285c0.233-0.281,0.291-0.718,0.176-1.335  c-0.122-0.652-0.464-1.253-0.794-1.835c-0.216-0.38-0.419-0.738-0.555-1.093c-0.757-1.983-1.411-3.821-2-5.616  c-0.095-0.287-0.198-0.552-0.3-0.808c-0.264-0.668-0.479-1.212-0.408-1.844c0.294-0.128,0.57-0.307,0.834-0.5  c-0.174,1.565,0.61,3.288,1.235,4.662l0.125,0.275c0.191,0.422,0.966,1.845,1.795,3.207c1.344,2.207,1.89,2.72,2.162,2.871  c0.102,0.847,0.214,1.705,0.366,2.556c0.003,0.019,0.005,0.039,0.01,0.057c0.001,0.005,0.002,0.009,0.004,0.013  c0.057,0.315,0.119,0.629,0.188,0.942l0.019,0.083c0.339,1.512,0.682,3.037,1.011,4.573c-3.103-1.21-5.29-4.32-7.235-7.088  c-0.384-0.546-0.746-1.063-1.116-1.567c-0.764-1.042-1.431-2.364-2.04-4.041C37.108,16.42,37.241,15.564,37.383,14.658z   M32.594,21.612c0.129-0.269,0.255-0.532,0.388-0.788c0.196,1.866,1.236,3.3,2.323,4.799c0.223,0.306,0.452,0.623,0.68,0.949  c0.417,0.598,0.815,1.243,1.2,1.866c1.062,1.72,2.159,3.497,3.876,4.733c0.655,0.472,2.014,1.174,3.07,1.174  c0.308,0,0.574-0.061,0.793-0.18c0.039-0.021,0.076-0.047,0.107-0.079c0.225-0.217,0.341-0.506,0.336-0.833  c-0.021-1.24-1.812-2.971-3.646-4.637c-0.16-0.146-0.302-0.275-0.417-0.382c-0.334-0.312-0.694-0.609-1.042-0.897  c-0.456-0.378-0.928-0.769-1.34-1.189c-0.104-0.107-0.222-0.22-0.343-0.337c-0.317-0.306-0.676-0.653-0.872-0.957  c-0.245-0.377-0.521-0.687-0.787-0.986c-0.078-0.088-0.156-0.174-0.226-0.254c-0.017-0.024-0.056-0.103-0.082-0.155  c-0.083-0.169-0.183-0.371-0.352-0.507l-0.095-0.137c-0.008-0.012-0.018-0.024-0.027-0.036c-0.728-0.866-2.074-3.075-2.005-3.943  c0.026-0.318,0.611-1.487,0.893-2.049c0.106-0.212,0.198-0.396,0.263-0.532c0.305-0.648,0.675-1.177,1.12-1.71  c-0.152,0.977-0.302,1.987,0.103,3.103c0.641,1.767,1.351,3.168,2.17,4.286c0.364,0.496,0.725,1.008,1.104,1.551  c2.146,3.052,4.571,6.502,8.274,7.645c0.588,2.811,1.119,5.658,1.504,8.53c-1.249-0.284-3.212-1.414-4.453-2.121  c-0.261-0.148-0.498-0.284-0.705-0.398c-1.983-1.098-3.471-2.343-4.944-3.63c-3.73-3.256-5.988-6.305-6.899-9.321  c-0.064-0.213-0.104-0.377-0.139-0.523c-0.078-0.327-0.139-0.579-0.375-0.971C32.248,22.334,32.423,21.97,32.594,21.612z   M34.092,21.484c0.467,0.823,0.992,1.559,1.282,1.907l0.135,0.194c0.035,0.051,0.08,0.095,0.132,0.129  c0.027,0.042,0.068,0.125,0.095,0.178c0.062,0.123,0.124,0.25,0.213,0.354c0.078,0.09,0.159,0.181,0.241,0.273  c0.241,0.271,0.492,0.552,0.695,0.866c0.258,0.397,0.659,0.785,1.013,1.128c0.115,0.111,0.226,0.218,0.325,0.32  c0.447,0.456,0.938,0.864,1.415,1.258c0.353,0.292,0.686,0.567,0.998,0.859c0.118,0.11,0.263,0.242,0.427,0.391  c0.906,0.823,3.311,3.008,3.325,3.928c0.001,0.029-0.003,0.05-0.007,0.066c-0.058,0.017-0.138,0.03-0.25,0.03  c-0.694,0-1.837-0.514-2.498-0.989c-1.559-1.122-2.558-2.74-3.615-4.453c-0.393-0.635-0.797-1.292-1.23-1.912  c-0.231-0.333-0.465-0.654-0.689-0.964C35.197,23.807,34.419,22.735,34.092,21.484z M28.646,32.915  c0.193,0.495,0.656,0.832,1.061,1.125c0.167,0.121,0.338,0.246,0.505,0.384c0.422,0.352,0.801,0.746,1.201,1.163  c0.338,0.352,0.688,0.714,1.072,1.059c1.787,1.6,3.955,2.861,6.051,4.082c0.428,0.249,0.853,0.496,1.271,0.744  c1.061,0.629,2.428,1.352,3.599,1.352c0.612,0,1.119-0.193,1.506-0.574c0.168-0.165,0.194-0.425,0.065-0.62  c-0.587-0.884-1.351-1.13-2.088-1.368c-0.359-0.116-0.697-0.225-1.03-0.408c-0.657-0.361-1.316-0.776-1.953-1.176  c-0.571-0.36-1.163-0.731-1.766-1.074c-0.753-0.428-1.322-1.013-1.925-1.631c-0.379-0.39-0.771-0.792-1.218-1.159l-0.057-0.047  c-1.105-0.909-1.979-1.627-2.833-2.761c-0.229-0.304-0.438-0.612-0.639-0.911c-0.542-0.802-1.057-1.563-1.904-2.193l0.01-0.111  c0.066-0.276,0.129-0.543,0.189-0.804c0.378-1.611,0.681-2.896,1.655-4.302c0.018,0.064,0.033,0.132,0.053,0.21  c0.035,0.151,0.081,0.339,0.153,0.58c0.967,3.197,3.319,6.395,7.193,9.776c1.515,1.323,3.047,2.604,5.114,3.749  c0.203,0.112,0.438,0.246,0.693,0.392c1.929,1.099,3.768,2.095,5.066,2.272c0.131,1.073,0.24,2.15,0.32,3.23  c0.091,1.208,0.216,2.502,0.356,3.859c-0.666-0.078-1.641-0.402-2.461-0.675c-0.588-0.196-1.144-0.382-1.588-0.482  c-0.52-0.118-1.049-0.232-1.561-0.343c-1.689-0.365-3.438-0.742-5.068-1.304c-0.358-0.124-0.719-0.246-1.079-0.369  c-3.395-1.149-6.905-2.339-9.375-5.054c-1.548-1.701-1.594-2.589-1.693-4.536c-0.015-0.271-0.029-0.551-0.049-0.855  C27.859,33.689,28.256,33.279,28.646,32.915z M24.802,47.678c0.077-0.36,0.268-0.698,0.469-1.056  c0.105-0.186,0.212-0.375,0.306-0.573c0.953,1.011,2.014,1.403,3.125,1.813c0.535,0.198,1.089,0.403,1.67,0.688  c1.924,0.946,4.327,1.339,6.651,1.72c0.8,0.131,1.557,0.255,2.267,0.398c0.445,0.089,1.105,0.196,1.722,0.196  c1.383,0,1.777-0.562,1.865-1.034c0.042-0.223-0.075-0.445-0.282-0.537c-0.808-0.358-1.355-0.383-1.84-0.405  c-0.461-0.021-0.896-0.04-1.608-0.357c-0.034-0.016-0.07-0.027-0.106-0.034l-0.85-0.163c-0.026-0.006-0.053-0.008-0.081-0.009  c-1.193-0.028-2.877-0.683-4.362-1.261c-0.578-0.225-1.124-0.437-1.63-0.61c-0.245-0.083-0.495-0.162-0.759-0.244  c-0.87-0.271-1.769-0.551-2.44-1.042c-0.525-0.383-0.975-0.896-1.451-1.438c-0.284-0.322-0.578-0.657-0.891-0.963  c-0.186-0.182-0.365-0.364-0.543-0.543c-0.142-0.144-0.286-0.29-0.433-0.436c0.388-0.662,0.158-1.432-0.019-2.021  c-0.091-0.304-0.176-0.59-0.171-0.8c0.015-0.649,0.5-1.893,0.789-2.636l0.08-0.205c0.088-0.227,0.191-0.449,0.309-0.667  c0.099,1.741,0.273,2.904,1.926,4.72c2.64,2.902,6.271,4.132,9.783,5.322c0.359,0.122,0.719,0.243,1.076,0.366  c1.686,0.581,3.462,0.965,5.18,1.335c0.51,0.11,1.036,0.224,1.551,0.34c0.396,0.09,0.93,0.268,1.495,0.457  c1.021,0.34,2.067,0.689,2.874,0.736c0.038,0.36,0.077,0.723,0.116,1.091c0.143,1.335,0.286,2.684,0.411,3.996  c-1.156-0.604-2.614-0.545-3.839-0.496c-0.213,0.009-0.42,0.017-0.619,0.022c-1.337,0.032-2.682,0.151-3.982,0.266  c-1.211,0.107-2.463,0.219-3.688,0.256c-2.386,0.073-5.989,0.184-8.655-0.77c-1.896-0.678-4.1-2.074-5.558-3.51  C24.587,48.861,24.71,48.107,24.802,47.678z M29.924,61.453c-0.129-0.148-0.254-0.301-0.373-0.462  c-0.569-0.767-0.641-1.312-0.737-2.066c-0.049-0.372-0.104-0.792-0.226-1.287c-0.243-0.989-0.818-1.48-1.373-1.955  c-0.281-0.24-0.571-0.489-0.831-0.814c-0.821-1.028-1.387-2.39-1.441-3.468c-0.001-0.017-0.002-0.034-0.005-0.051l-0.035-0.222  c1.474,1.213,3.337,2.31,4.983,2.899c2.841,1.016,6.557,0.902,9.015,0.826c1.255-0.039,2.521-0.151,3.746-0.259  c1.285-0.114,2.614-0.232,3.919-0.263c0.204-0.004,0.417-0.013,0.635-0.022c1.411-0.057,3.006-0.121,3.917,0.807  c0.052,0.603,0.099,1.193,0.137,1.768c-2.174-0.666-5.296,0.264-7.869,1.199c-1.062,0.386-2.093,0.863-3.09,1.325  c-1.178,0.545-2.396,1.109-3.644,1.509c-0.423,0.135-1.96,0.425-3.505,0.59C30.954,61.741,30.086,61.576,29.924,61.453z   M40.259,71.288c-0.021-0.006-0.042-0.013-0.062-0.02c-0.009-0.003-0.018-0.007-0.027-0.01c-0.771-0.259-1.482-0.666-2.068-1.198  c-0.471-0.427-0.859-0.945-1.271-1.495c-0.427-0.569-0.868-1.159-1.413-1.641c-1.112-0.986-1.959-1.833-2.829-2.83  c-0.446-0.511-0.929-0.956-1.395-1.386c-0.038-0.035-0.075-0.069-0.113-0.104c0.054,0.001,0.107,0.001,0.163,0.001  c0.496,0,1.108-0.033,1.87-0.11c1.574-0.16,3.285-0.469,3.837-0.646c1.305-0.418,2.551-0.995,3.756-1.552  c0.979-0.453,1.991-0.921,3.014-1.293c1.53-0.557,5.493-1.997,7.599-1.051c0.017,0.32,0.029,0.634,0.039,0.941  c-1.171,0.153-2.199,1.224-2.978,2.034c-0.12,0.125-0.234,0.245-0.344,0.354c-1.079,1.084-1.77,2.203-2.502,3.387  c-0.146,0.236-1.217,1.894-2.448,3.545C41.159,70.802,40.442,71.22,40.259,71.288z M49.819,70.926c-0.399,0-0.845-0.147-1.275-0.289  c-0.271-0.089-0.553-0.182-0.822-0.236c-0.265-0.053-0.525-0.08-0.772-0.08c-0.838,0-1.449,0.296-2.041,0.583  c-0.278,0.135-0.542,0.262-0.834,0.364c-0.604,0.211-1.248,0.318-1.912,0.318c-0.208,0-0.417-0.012-0.624-0.033  c0.54-0.5,1.285-1.345,2.352-2.778c1.245-1.672,2.33-3.353,2.479-3.593c0.731-1.183,1.363-2.206,2.362-3.21  c0.112-0.113,0.231-0.236,0.356-0.366c0.644-0.67,1.49-1.553,2.291-1.722c0.007,1.109-0.043,2.089-0.174,2.885l-0.061,0.4  c-0.007,0.039-0.007,0.078-0.004,0.117c0.053,0.601,0.031,1.221,0.009,1.878c-0.027,0.768-0.054,1.562,0.045,2.349  c0.071,0.575,0.062,2.016-0.043,2.55c-0.072,0.368-0.072,0.368-0.378,0.52c-0.086,0.043-0.193,0.096-0.314,0.164  c-0.021,0.013-0.041,0.028-0.062,0.043C50.226,70.882,50.039,70.926,49.819,70.926z M50.744,91.275  c-0.221,0.125-0.454,0.27-0.675,0.414l1.166-20.243c0.177-0.089,0.328-0.173,0.456-0.292c-0.011,0.39,0,0.797,0.032,1.111  L50.744,91.275z M52.656,58.148c-0.026,0.906-0.053,1.704-0.004,2.188c-0.109,0.157-0.214,0.335-0.307,0.523  c0.026-0.924,0.002-1.954-0.056-3.055c0.034-0.113,0.026-0.232-0.019-0.337c-0.139-2.392-0.427-5.09-0.709-7.741  c-0.048-0.454-0.096-0.9-0.143-1.342c0.002-0.008,0.182-0.016,0.184-0.024C51.677,48.844,52,49.327,52,49.812  c0,0.013,0,0.026,0,0.039c0,0.032-0.166,0.063-0.156,0.093c0.114,0.743,0.182,1.5,0.334,2.232c0.199,0.966,0.359,1.96,0.471,2.93  c-0.024,0.109-0.034,0.219,0.011,0.315c0.007,0.073,0.003,0.147,0.009,0.221C52.716,56.278,52.683,57.229,52.656,58.148z   M53.048,51.978c-0.12-0.582-0.242-1.179-0.344-1.766c3.262-0.496,6.572-2.125,9.129-3.515c3.256-1.771,7.389-4.274,10.472-7.959  c1.379-1.646,1.482-3.474,1.584-5.242c0.045-0.785,0.088-1.54,0.235-2.271c0.533,0.67,0.858,1.274,1.3,2.092  c0.27,0.5,0.565,0.968,0.851,1.42c1.136,1.798,1.956,3.097,0.52,4.957c-0.487,0.631-1.291,1.319-2.323,1.989  c-0.393,0.254-0.796,0.532-1.188,0.8c-0.702,0.481-1.429,0.98-2.126,1.375c-0.991,0.562-1.981,1.153-2.939,1.726  c-1.286,0.769-2.616,1.564-3.946,2.285c-0.144,0.078-0.591,0.278-1.064,0.491c-0.522,0.235-1.115,0.501-1.582,0.728  c-0.716,0.346-1.147,0.555-1.039,1.011c0.128,0.536,0.553,0.843,1.167,0.843c0.713,0,1.619-0.416,2.105-0.64  c0.095-0.043,0.193-0.089,0.229-0.103c0.269-0.098,0.549-0.206,0.834-0.314c0.349-0.133,0.71-0.271,1.055-0.396  c0.953-0.347,1.334-0.561,2.149-1.115c0.782-0.532,1.44-0.961,1.959-1.275c0.851-0.515,1.558-1.021,2.366-1.693  c0.436-0.362,0.998-0.761,1.594-1.183c1.072-0.76,2.29-1.623,3.234-2.605c-0.021,0.222-0.021,0.449,0.008,0.682  c0.08,0.642,0.377,1.223,0.665,1.786c0.172,0.337,0.335,0.655,0.447,0.973c0.02,0.057,0.04,0.115,0.062,0.172  c-1.275,1.588-3.635,3.334-6.687,4.944c-2.767,1.459-5.854,2.656-8.058,3.124c-0.794,0.168-1.649,0.407-2.555,0.66  c-2.539,0.71-5.401,1.508-7.602,0.893C53.441,53.886,53.243,52.919,53.048,51.978z M72.064,44.46  c-0.083,0.065-0.162,0.13-0.239,0.193c-0.769,0.639-1.44,1.12-2.248,1.608c-0.532,0.323-1.206,0.761-2.002,1.303  c-0.76,0.517-1.066,0.689-1.934,1.005c-0.352,0.128-0.716,0.267-1.068,0.401c-0.281,0.107-0.56,0.213-0.824,0.311  c-0.071,0.027-0.167,0.071-0.299,0.131c-0.284,0.13-0.791,0.363-1.238,0.48c0.461-0.219,1.018-0.469,1.396-0.639  c0.533-0.24,0.954-0.429,1.129-0.524c1.349-0.73,2.688-1.531,3.982-2.305c0.954-0.57,1.938-1.159,2.92-1.714  C71.781,44.63,71.923,44.546,72.064,44.46z M69.858,68.5c-0.425,0.041-0.863,0.083-1.241,0.199  c-1.277,0.392-2.329,0.772-3.311,1.196c-0.018,0.008-0.035,0.017-0.053,0.026l-0.75,0.437c-0.783,0.453-1.993,0.703-3.406,0.703  c-1.064,0-2.186-0.145-3.073-0.397c-0.999-0.284-1.64-0.661-2.365-1.391c-0.795-0.799-0.85-1.21-0.998-2.306l-0.003-0.02  c-0.051-0.377-0.171-0.707-0.288-1.026c-0.104-0.285-0.202-0.555-0.239-0.831c-0.056-0.424-0.015-0.874,0.029-1.35  c0.02-0.22,0.041-0.447,0.051-0.671l0.009-0.193c0.061-1.25,0.062-2.071-0.093-2.557c0.359,0.195,0.722,0.4,1.094,0.611  c0.928,0.527,1.889,1.072,2.899,1.49c0.516,0.213,1.557,0.754,2.763,1.38c4.074,2.117,7.917,4.038,10.262,4.467  C70.806,68.409,70.326,68.456,69.858,68.5z M74.73,63.017c-0.918,0.709-1.245,1.448-1.66,2.384l-0.04,0.091  c-0.281,0.632-0.654,1.346-1.014,1.889c-2.086,0.019-7.438-2.763-10.683-4.448c-1.276-0.664-2.284-1.187-2.84-1.417  c-0.955-0.395-1.888-0.924-2.791-1.437c-0.681-0.386-1.382-0.784-2.095-1.126c0.004-0.168,0.008-0.341,0.014-0.512  c1.673-0.144,3.616,0.373,5.346,0.833c0.459,0.122,0.892,0.237,1.321,0.341c2.019,0.493,4.982,1.039,8.191,1.039  c2.999,0,6.213-0.477,9.071-1.92c0.112-0.057,0.295-0.144,0.506-0.245c0.088-0.042,0.174-0.083,0.259-0.124  C77.383,60.416,76.317,61.791,74.73,63.017z M79.99,54.222c-0.068,0.205-0.13,0.39-0.177,0.539  c-0.229,0.729-0.529,1.405-0.849,2.123c-0.011,0.026-0.023,0.053-0.034,0.079c-0.295,0.167-0.886,0.448-1.295,0.644  c-0.219,0.105-0.409,0.196-0.525,0.254c-5.637,2.846-12.813,1.726-16.59,0.805c-0.419-0.102-0.848-0.216-1.301-0.337  c-1.772-0.472-3.758-0.998-5.571-0.87c0.014-0.567,0.021-1.116,0.002-1.577c0.54,0.118,1.102,0.17,1.678,0.17  c1.981,0,4.132-0.601,6.098-1.15c0.89-0.248,1.73-0.483,2.494-0.645c4.121-0.875,11.657-4.333,14.944-7.989  c0.602,1.523,1.158,3.079,0.275,4.299c-0.001,0.001-0.111,0.146-0.465,0.458c-0.389,0.317-4.603,2.246-7.097,2.893  c-1.473,0.382-3.01,0.586-4.458,0.763c-0.134,0.016-0.33,0.034-0.559,0.055c-2.176,0.202-3.492,0.388-3.422,1.253  c0.043,0.522,0.659,0.702,1.318,0.819c0.619,0.11,1.433,0.17,2.291,0.17c1.085,0,3.18-0.1,5.02-0.766  c1.691-0.612,3.33-1.262,4.872-1.932c0.26-0.112,0.69-0.355,1.235-0.663c0.697-0.394,2.035-1.149,2.695-1.366  C80.468,52.782,80.146,53.753,79.99,54.222z M77.355,52.787c-0.464,0.262-0.897,0.506-1.104,0.596  c-1.523,0.661-3.144,1.304-4.815,1.909C69.736,55.908,67.77,56,66.749,56c-0.705,0-1.29-0.042-1.738-0.098  c0.604-0.093,1.313-0.159,1.642-0.19c0.235-0.021,0.438-0.041,0.586-0.059c1.416-0.172,3.055-0.39,4.586-0.787  C73.312,54.479,75.67,53.549,77.355,52.787z"></path><path xmlns="http://www.w3.org/2000/svg" d="M37.391,59.301c0.419-0.012,1.377-0.121,2.31-0.373c1.206-0.326,1.926-0.814,2.141-1.452  c0.081-0.241,0.048-0.48-0.092-0.675c-0.279-0.389-0.892-0.469-1.726-0.469c-0.244,0-0.496,0.008-0.718,0.015  c-0.235,0.007-0.452,0.014-0.612,0.009c-0.196-0.004-0.401-0.007-0.608-0.007c-0.965,0-1.881,0.053-2.852,0.108  c-0.186,0.01-0.372,0.022-0.561,0.032c-3.34,0.182-3.708,0.452-3.848,0.552c-0.145,0.105-0.222,0.287-0.198,0.465  c0.023,0.178,0.142,0.34,0.309,0.405c0.146,0.057,3.622,1.415,6.247,1.415C37.252,59.326,37.322,59.303,37.391,59.301z   M34.727,57.476c0.188-0.01,0.376-0.032,0.562-0.042c0.956-0.054,1.858-0.105,2.796-0.105c0.198,0,0.396,0.003,0.585,0.008  c0.18,0.004,0.414-0.001,0.665-0.008c0.226-0.007,0.459-0.011,0.688-0.011c0.384,0,0.619,0.027,0.764,0.051  c-0.512,0.53-2.285,0.921-3.424,0.954c-0.061,0.002-0.12,0.025-0.181,0.025c-1.3,0-2.876-0.394-4.071-0.744  C33.572,57.56,34.114,57.51,34.727,57.476z"></path></g><g id="SvgjsG2271" featureKey="nameFeature-0" transform="matrix(1.1615749393609884,0,0,1.1615749393609884,53.67685012127802,167.45917534489132)" fill="#bfd904"><path d="M2.52 40 c-0.28 0 -0.52 -0.24 -0.52 -0.52 l0 -23.96 c0 -0.28 0.24 -0.52 0.52 -0.52 l5.2 0 c0.28 0 0.52 0.24 0.52 0.52 l0 18.72 l9 0 c0.28 0 0.52 0.24 0.52 0.52 l0 4.72 c0 0.28 -0.24 0.52 -0.52 0.52 l-14.72 0 z M27.656000000000002 40 l0 -23.96 c0 -1 0.2 -1.2 0.52 -1.2 l17.52 0 c0.28 0 0.52 0.2 0.52 0.48 l0 4.52 c0 0.28 -0.24 0.52 -0.52 0.52 l-11.84 0 l0 4.16 l7.48 0 c0.28 0 0.52 0.24 0.52 0.52 l0 4.48 c0 0.28 -0.24 0.52 -0.52 0.52 l-7.48 0 l0 4.28 l11.8 0 c0.28 0 0.52 0.24 0.52 0.52 l0 4.48 c0 0.28 -0.24 0.52 -0.52 0.52 l-17.48 0 c-0.32 0 -0.52 -0.24 -0.52 0.16 z M68.47200000000001 40 c-2.36 0 -4.56 -0.56 -6.48 -1.68 c-1.96 -1.16 -3.48 -2.72 -4.6 -4.64 c-1.12 -1.96 -1.68 -4.2 -1.68 -6.6 s0.56 -4.6 1.72 -6.52 c1.12 -1.96 2.72 -3.52 4.68 -4.64 c2 -1.12 4.24 -1.68 6.68 -1.68 c1.76 0 3.48 0.32 5.2 1 c1.68 0.64 3.16 1.56 4.36 2.72 c0.2 0.16 0.24 0.44 0.08 0.68 l-2.92 3.84 c-0.12 0.12 -0.24 0.2 -0.4 0.24 c-0.12 0 -0.28 -0.08 -0.4 -0.16 c-0.8 -0.8 -1.72 -1.44 -2.8 -1.88 c-1.04 -0.44 -2.08 -0.68 -3.12 -0.68 c-1.24 0 -2.4 0.32 -3.4 0.92 c-1.04 0.64 -1.84 1.48 -2.44 2.56 s-0.88 2.28 -0.88 3.6 s0.28 2.56 0.88 3.64 s1.44 1.96 2.44 2.6 c1.04 0.6 2.2 0.92 3.4 0.92 c0.64 0 1.32 -0.12 2.08 -0.32 c0.64 -0.2 1.32 -0.48 1.92 -0.8 l0 -1.84 l-2.76 0 c-0.16 0 -0.28 -0.04 -0.36 -0.16 c-0.12 -0.08 -0.16 -0.2 -0.16 -0.36 l0.04 -4.48 c0 -0.28 0.24 -0.52 0.52 -0.52 l7.76 0 c0.28 0 0.52 0.24 0.52 0.52 l0 10.04 c0 0.16 -0.08 0.32 -0.24 0.44 c-1.24 0.96 -2.76 1.76 -4.52 2.32 c-1.76 0.6 -3.48 0.92 -5.12 0.92 z M88.52799999999999 40 c-0.16 0 -0.32 -0.08 -0.4 -0.24 c-0.12 -0.12 -0.12 -0.32 -0.08 -0.48 l9.32 -23.96 c0.08 -0.2 0.28 -0.32 0.48 -0.32 l5.36 0 c0.2 0 0.4 0.12 0.48 0.32 l9.16 23.96 c0.04 0.16 0.04 0.32 -0.08 0.48 c-0.08 0.16 -0.24 0.24 -0.4 0.24 l-5.56 0 c-0.2 0 -0.4 -0.12 -0.48 -0.32 l-1.48 -3.68 l-9 0.04 l-1.48 3.64 c-0.08 0.2 -0.28 0.32 -0.48 0.32 l-5.36 0 z M97.488 31 l5.76 0 l-2.88 -8.48 z M132.58399999999997 40 c-2.36 0 -4.52 -0.56 -6.44 -1.68 c-1.92 -1.16 -3.44 -2.72 -4.52 -4.68 s-1.64 -4.16 -1.64 -6.6 c0 -2.36 0.56 -4.56 1.68 -6.52 c1.12 -1.92 2.68 -3.48 4.6 -4.6 c1.96 -1.12 4.16 -1.68 6.48 -1.68 c1.76 0 3.48 0.4 5.16 1.12 c1.68 0.76 3.12 1.76 4.32 3.04 c0.16 0.2 0.16 0.48 0 0.68 l-3.8 3.12 c-0.12 0.12 -0.24 0.2 -0.4 0.2 s-0.32 -0.08 -0.4 -0.2 c-2.04 -2.48 -5.32 -3 -8.08 -1.28 c-2.4 1.48 -3.28 4.2 -3.16 6.92 c0.12 2.76 2.12 5.12 4.76 5.92 c2.4 0.72 4.76 0.16 6.48 -1.68 c0.12 -0.08 0.24 -0.16 0.4 -0.12 c0.16 0 0.28 0.04 0.36 0.16 l3.88 2.72 c0.16 0.2 0.16 0.48 0 0.68 c-1.28 1.36 -2.8 2.48 -4.48 3.28 c-1.72 0.8 -3.48 1.2 -5.2 1.2 z M160.07999999999998 40 c-0.28 0 -0.48 -0.24 -0.48 -0.52 l0 -9.52 l-8.48 -14.2 c-0.08 -0.16 -0.08 -0.36 0.04 -0.52 c0.08 -0.16 0.24 -0.24 0.44 -0.24 l5.2 0 c0.2 0 0.36 0.08 0.44 0.28 l5.44 8.88 l5.32 -8.88 c0.08 -0.16 0.24 -0.28 0.44 -0.28 l5.24 0 c0.16 0 0.36 0.08 0.44 0.24 s0.08 0.36 0 0.52 l-8.32 14.04 l0 9.68 c0 0.28 -0.24 0.52 -0.52 0.52 l-5.2 0 z"></path></g><g id="SvgjsG2272" featureKey="sloganFeature-0" transform="matrix(0.5556329479514998,0,0,0.5556329479514998,71.07869096185952,230.78844091437102)" fill="#bfd904"><path d="M9.38 19.24 c0.04 0.1 0.06 0.24 0.06 0.32 c0 0.22 -0.24 0.44 -0.46 0.44 l-6.9 0 c-0.3 0 -0.44 -0.14 -0.42 -0.44 l1 -13.46 c0.1 -0.06 0.22 -0.1 0.36 -0.1 c0.26 0 0.42 0.14 0.38 0.66 l-0.92 12.58 l6.9 0 z M19.908 6.52 l3.64 13.32 c-0.06 0.06 -0.22 0.16 -0.42 0.16 c-0.28 0 -0.38 -0.08 -0.44 -0.32 l-1.14 -4.28 l-6.14 0 l-1.9 4.52 c-0.12 0.06 -0.2 0.08 -0.32 0.08 c-0.32 0 -0.46 -0.22 -0.36 -0.48 l5.64 -13.3 c0.34 -0.18 0.48 -0.22 0.78 -0.22 c0.36 0 0.6 0.22 0.66 0.52 z M19.128 6.58 l-3.38 8.06 l5.58 0 l-2.18 -8.06 l-0.02 0 z M31.376 20 c-0.36 0 -0.58 -0.22 -0.64 -0.5 l-2.66 -13.32 c0.04 -0.08 0.16 -0.18 0.36 -0.18 c0.28 0 0.4 0.1 0.46 0.34 l2.58 13.1 l0.04 0 l4.86 -13.36 c0.32 -0.18 0.48 -0.22 0.78 -0.22 c0.36 0 0.6 0.22 0.66 0.52 l2.6 13.06 l0.04 0 l4.82 -13.36 c0.1 -0.06 0.22 -0.08 0.36 -0.08 c0.24 0 0.38 0.22 0.28 0.48 l-4.84 13.3 c-0.32 0.18 -0.48 0.22 -0.78 0.22 c-0.36 0 -0.6 -0.22 -0.66 -0.5 l-2.58 -13.08 l-0.04 0 l-4.86 13.36 c-0.32 0.18 -0.48 0.22 -0.78 0.22 z M50.42400000000001 20 c-0.32 0 -0.42 -0.14 -0.4 -0.48 l1 -13.3 c0.38 -0.18 0.56 -0.22 0.88 -0.22 c0.36 0 0.56 0.22 0.68 0.52 l5.86 12.84 l0.06 0 l1 -13.28 c0.12 -0.06 0.24 -0.08 0.36 -0.08 c0.3 0 0.4 0.16 0.38 0.5 l-1 13.28 c-0.36 0.18 -0.54 0.22 -0.84 0.22 c-0.4 0 -0.58 -0.22 -0.72 -0.52 l-5.88 -12.84 l-0.02 0 l-1.02 13.28 c-0.12 0.06 -0.22 0.08 -0.34 0.08 z M78.04 20.2 c-3.12 0 -4.98 -2.2 -4.98 -6.44 c0 -4.72 2.32 -7.96 5.98 -7.96 c2.62 0 3.9 1.68 3.9 3.58 c0 0.68 -0.16 0.92 -0.52 0.92 c-0.18 0 -0.28 -0.06 -0.34 -0.14 c0.02 -0.12 0.04 -0.28 0.04 -0.54 c0 -1.88 -1.04 -3.04 -3.08 -3.04 c-3.26 0 -5.18 2.96 -5.18 7.2 c0 3.76 1.5 5.64 4.2 5.64 c1.74 0 3.06 -0.76 3.86 -1.9 c0.28 0.06 0.38 0.24 0.38 0.44 c0 0.82 -1.76 2.24 -4.26 2.24 z M93.24800000000002 6.52 l3.64 13.32 c-0.06 0.06 -0.22 0.16 -0.42 0.16 c-0.28 0 -0.38 -0.08 -0.44 -0.32 l-1.14 -4.28 l-6.14 0 l-1.9 4.52 c-0.12 0.06 -0.2 0.08 -0.32 0.08 c-0.32 0 -0.46 -0.22 -0.36 -0.48 l5.64 -13.3 c0.34 -0.18 0.48 -0.22 0.78 -0.22 c0.36 0 0.6 0.22 0.66 0.52 z M92.46800000000002 6.58 l-3.38 8.06 l5.58 0 l-2.18 -8.06 l-0.02 0 z M110.77600000000001 9.66 c0 2.58 -1.72 3.96 -4.54 4.16 l4.14 6.1 c-0.12 0.16 -0.26 0.24 -0.44 0.24 c-0.26 0 -0.42 -0.1 -0.56 -0.3 l-4.12 -6.18 c-0.16 -0.28 -0.02 -0.56 0.26 -0.54 c2.96 0 4.48 -1.12 4.48 -3.54 c0 -1.88 -1.08 -3.04 -3.4 -3.04 c-1.16 0 -2.3 0.16 -3.02 0.38 l-0.96 12.98 c-0.04 0.04 -0.22 0.08 -0.34 0.08 c-0.3 0 -0.44 -0.14 -0.42 -0.44 l0.98 -13.22 c0.88 -0.26 2.26 -0.54 3.76 -0.54 c2.76 0 4.18 1.54 4.18 3.86 z M124.04400000000001 6 c0.04 0.1 0.06 0.24 0.06 0.32 c0 0.24 -0.16 0.44 -0.36 0.44 l-6.4 0 l-0.44 5.74 l6.3 0 c0.04 0.08 0.06 0.24 0.06 0.3 c0 0.24 -0.08 0.46 -0.36 0.46 l-6.06 0 l-0.44 5.98 l7.12 0 c0.04 0.1 0.06 0.24 0.06 0.32 c0 0.3 -0.16 0.44 -0.36 0.44 l-7.2 0 c-0.28 0 -0.44 -0.16 -0.42 -0.46 l1 -13.54 l7.44 0 z M146.54000000000002 12.26 c0.06 0.1 0.1 0.2 0.1 0.32 c0 0.26 -0.22 0.46 -0.46 0.46 l-2.48 0 c2.2 3.82 0.32 7.16 -3.74 7.16 c-2.56 0 -4.02 -1.56 -4.02 -3.4 c0 -2.18 1.12 -3.38 3.24 -4.12 c-1.78 -0.62 -2.36 -1.66 -2.36 -3 c0 -1.88 1.46 -3.9 4.38 -3.9 c2.18 0 3.48 1.44 3.48 2.98 c0 0.54 -0.34 0.84 -0.84 0.7 c0.08 -1.82 -0.9 -2.88 -2.76 -2.88 c-2.24 0 -3.46 1.36 -3.46 2.94 c0 1.52 0.92 2.62 3.18 2.7 c0.32 0.3 0.16 0.78 -0.36 0.84 c-2.26 0.18 -3.7 1.7 -3.7 3.68 c0 1.58 1.06 2.68 3.38 2.68 c3.26 0 4.76 -2.66 2.98 -5.88 c-0.32 -0.58 -0.34 -0.7 -0.34 -0.9 s0.36 -0.38 0.54 -0.38 l3.24 0 z M166.09600000000003 19.24 c0.04 0.1 0.06 0.24 0.06 0.32 c0 0.22 -0.24 0.44 -0.46 0.44 l-6.9 0 c-0.3 0 -0.44 -0.14 -0.42 -0.44 l1 -13.46 c0.1 -0.06 0.22 -0.1 0.36 -0.1 c0.26 0 0.42 0.14 0.38 0.66 l-0.92 12.58 l6.9 0 z M176.62400000000002 6.52 l3.64 13.32 c-0.06 0.06 -0.22 0.16 -0.42 0.16 c-0.28 0 -0.38 -0.08 -0.44 -0.32 l-1.14 -4.28 l-6.14 0 l-1.9 4.52 c-0.12 0.06 -0.2 0.08 -0.32 0.08 c-0.32 0 -0.46 -0.22 -0.36 -0.48 l5.64 -13.3 c0.34 -0.18 0.48 -0.22 0.78 -0.22 c0.36 0 0.6 0.22 0.66 0.52 z M175.84400000000002 6.58 l-3.38 8.06 l5.58 0 l-2.18 -8.06 l-0.02 0 z M185.63200000000003 20 c-0.32 0 -0.42 -0.14 -0.4 -0.48 l1 -13.3 c0.38 -0.18 0.56 -0.22 0.88 -0.22 c0.36 0 0.56 0.22 0.68 0.52 l5.86 12.84 l0.06 0 l1 -13.28 c0.12 -0.06 0.24 -0.08 0.36 -0.08 c0.3 0 0.4 0.16 0.38 0.5 l-1 13.28 c-0.36 0.18 -0.54 0.22 -0.84 0.22 c-0.4 0 -0.58 -0.22 -0.72 -0.52 l-5.88 -12.84 l-0.02 0 l-1.02 13.28 c-0.12 0.06 -0.22 0.08 -0.34 0.08 z M204.46000000000004 20 l-3.08 0 c-0.3 0 -0.46 -0.16 -0.44 -0.46 l0.98 -13.2 c1.4 -0.36 2.56 -0.54 4.06 -0.54 c3.34 0 5.28 1.94 5.28 6.18 c0 5.3 -2.28 8.02 -6.8 8.02 z M204.46000000000004 19.24 c4.14 0 6 -2.38 6 -7.16 c0 -3.94 -1.54 -5.5 -4.46 -5.5 c-1.08 0 -2.36 0.1 -3.34 0.38 l-0.9 12.28 l2.7 0 z M219.46800000000005 20.2 c-2.54 0 -4.08 -1.24 -4.08 -1.98 c0.02 -0.32 0.18 -0.52 0.44 -0.56 c0.34 0.8 1.48 1.76 3.56 1.76 c2.72 0 4.16 -1.24 4.18 -2.9 c0.06 -4.04 -7.12 -2.7 -7.04 -7.12 c0.04 -2.06 1.82 -3.6 4.38 -3.6 c2.52 0 3.76 1.48 3.74 3.08 c-0.04 0.68 -0.24 0.9 -0.56 0.9 c-0.16 0 -0.26 -0.04 -0.34 -0.12 l0 -0.02 c0.02 -0.12 0.04 -0.3 0.04 -0.5 c0.04 -1.46 -0.88 -2.56 -2.92 -2.56 c-2.16 0 -3.5 1.2 -3.54 2.72 c-0.06 3.84 7.12 2.4 7.04 7.26 c-0.04 2.14 -1.92 3.64 -4.9 3.64 z M234.31600000000006 20.2 c-3.12 0 -4.98 -2.2 -4.98 -6.44 c0 -4.72 2.32 -7.96 5.98 -7.96 c2.62 0 3.9 1.68 3.9 3.58 c0 0.68 -0.16 0.92 -0.52 0.92 c-0.18 0 -0.28 -0.06 -0.34 -0.14 c0.02 -0.12 0.04 -0.28 0.04 -0.54 c0 -1.88 -1.04 -3.04 -3.08 -3.04 c-3.26 0 -5.18 2.96 -5.18 7.2 c0 3.76 1.5 5.64 4.2 5.64 c1.74 0 3.06 -0.76 3.86 -1.9 c0.28 0.06 0.38 0.24 0.38 0.44 c0 0.82 -1.76 2.24 -4.26 2.24 z M249.52400000000003 6.52 l3.64 13.32 c-0.06 0.06 -0.22 0.16 -0.42 0.16 c-0.28 0 -0.38 -0.08 -0.44 -0.32 l-1.14 -4.28 l-6.14 0 l-1.9 4.52 c-0.12 0.06 -0.2 0.08 -0.32 0.08 c-0.32 0 -0.46 -0.22 -0.36 -0.48 l5.64 -13.3 c0.34 -0.18 0.48 -0.22 0.78 -0.22 c0.36 0 0.6 0.22 0.66 0.52 z M248.74400000000003 6.58 l-3.38 8.06 l5.58 0 l-2.18 -8.06 l-0.02 0 z M258.89200000000005 19.92 c-0.04 0.04 -0.22 0.08 -0.34 0.08 c-0.3 0 -0.44 -0.14 -0.42 -0.44 l0.98 -13.22 c0.88 -0.26 2.26 -0.54 3.76 -0.54 c2.76 0 4.18 1.72 4.18 4.36 c0 2.78 -2.2 4.52 -5.02 4.52 c-0.54 0 -0.7 -0.14 -0.7 -0.4 c0 -0.14 0.06 -0.26 0.16 -0.34 c3.28 0 4.78 -1.54 4.78 -3.86 c0 -2.18 -1.08 -3.52 -3.4 -3.52 c-1.16 0 -2.3 0.16 -3.02 0.38 z M272.08000000000004 20 c-0.3 0 -0.46 -0.14 -0.44 -0.44 l1 -13.46 c0.1 -0.06 0.24 -0.1 0.38 -0.1 c0.26 0 0.4 0.14 0.36 0.66 l-0.98 13.26 c-0.04 0.04 -0.2 0.08 -0.32 0.08 z M279.288 20 c-0.32 0 -0.42 -0.14 -0.4 -0.48 l1 -13.3 c0.38 -0.18 0.56 -0.22 0.88 -0.22 c0.36 0 0.56 0.22 0.68 0.52 l5.86 12.84 l0.06 0 l1 -13.28 c0.12 -0.06 0.24 -0.08 0.36 -0.08 c0.3 0 0.4 0.16 0.38 0.5 l-1 13.28 c-0.36 0.18 -0.54 0.22 -0.84 0.22 c-0.4 0 -0.58 -0.22 -0.72 -0.52 l-5.88 -12.84 l-0.02 0 l-1.02 13.28 c-0.12 0.06 -0.22 0.08 -0.34 0.08 z M299.396 13.440000000000001 c0 -0.28 0.22 -0.46 0.4 -0.46 l4.14 0 l-0.52 6.94 c-0.04 0.04 -0.2 0.08 -0.38 0.08 c-0.28 0 -0.4 -0.18 -0.38 -0.46 l0.12 -1.44 c-0.92 1.56 -2.44 2.1 -3.88 2.1 c-2.86 0 -4.64 -2.1 -4.64 -6.36 c0 -4.84 2.32 -8.04 5.98 -8.04 c2.62 0 3.78 1.68 3.78 3.24 c0 0.62 -0.18 0.86 -0.54 0.86 c-0.18 0 -0.28 -0.06 -0.32 -0.14 c0.02 -0.12 0.04 -0.28 0.04 -0.5 c0 -1.54 -0.94 -2.68 -2.96 -2.68 c-3.26 0 -5.18 2.92 -5.18 7.28 c0 3.78 1.42 5.56 3.88 5.56 c1.7 0 4.18 -0.84 4.12 -5.68 l-3.62 0 c0 -0.06 -0.04 -0.2 -0.04 -0.3 z"></path></g>
			</g>
		</svg>
	